Jinko Light.ufo
<glyph name="exclam" format="1">
  <advance width="622"/>
  <unicode hex="0021"/>
  <outline>
    <contour>
      <point x="323" y="-2" type="curve" smooth="yes"/>
      <point x="411" y="-2"/>
      <point x="482" y="67"/>
      <point x="482" y="156" type="curve" smooth="yes"/>
      <point x="482" y="244"/>
      <point x="411" y="314"/>
      <point x="323" y="314" type="curve" smooth="yes"/>
      <point x="235" y="314"/>
      <point x="164" y="244"/>
      <point x="164" y="156" type="curve" smooth="yes"/>
      <point x="164" y="67"/>
      <point x="235" y="-2"/>
    </contour>
    <contour>
      <point x="290" y="493" type="line"/>
      <point x="360" y="493" type="line"/>
      <point x="433" y="1575" type="line"/>
      <point x="218" y="1575" type="line"/>
    </contour>
  </outline>
</glyph>
<glyph name="quotedbl" format="1">
  <advance width="918"/>
  <unicode hex="0022"/>
  <outline>
    <contour>
      <point x="190" y="1003" type="line"/>
      <point x="316" y="1003" type="line"/>
      <point x="361" y="1575" type="line"/>
      <point x="146" y="1575" type="line"/>
    </contour>
    <contour>
      <point x="602" y="1003" type="line"/>
      <point x="727" y="1003" type="line"/>
      <point x="773" y="1575" type="line"/>
      <point x="557" y="1575" type="line"/>
    </contour>
  </outline>
</glyph>
<glyph name="numbersign" format="1">
  <advance width="1462"/>
  <unicode hex="0023"/>
  <outline>
    <contour>
      <point x="290" y="60" type="line"/>
      <point x="430" y="60" type="line"/>
      <point x="522" y="485" type="line"/>
      <point x="858" y="485" type="line"/>
      <point x="767" y="60" type="line"/>
      <point x="902" y="60" type="line"/>
      <point x="995" y="485" type="line"/>
      <point x="1312" y="485" type="line"/>
      <point x="1312" y="578" type="line"/>
      <point x="1016" y="578" type="line"/>
      <point x="1128" y="1063" type="line"/>
      <point x="1381" y="1063" type="line"/>
      <point x="1381" y="1150" type="line"/>
      <point x="1150" y="1150" type="line"/>
      <point x="1226" y="1499" type="line"/>
      <point x="1086" y="1499" type="line"/>
      <point x="1010" y="1150" type="line"/>
      <point x="677" y="1150" type="line"/>
      <point x="752" y="1499" type="line"/>
      <point x="611" y="1499" type="line"/>
      <point x="534" y="1150" type="line"/>
      <point x="209" y="1150" type="line"/>
      <point x="209" y="1063" type="line"/>
      <point x="514" y="1063" type="line"/>
      <point x="404" y="578" type="line"/>
      <point x="123" y="578" type="line"/>
      <point x="123" y="485" type="line"/>
      <point x="383" y="485" type="line"/>
    </contour>
    <contour>
      <point x="544" y="576" type="line"/>
      <point x="655" y="1065" type="line"/>
      <point x="993" y="1065" type="line"/>
      <point x="882" y="576" type="line"/>
    </contour>
  </outline>
</glyph>
<glyph name="quotesingle" format="1">
  <advance width="549"/>
  <unicode hex="0027"/>
  <outline>
    <contour>
      <point x="165" y="951" type="line"/>
      <point x="271" y="951" type="line"/>
      <point x="350" y="1575" type="line"/>
      <point x="123" y="1575" type="line"/>
    </contour>
  </outline>
</glyph>
<glyph name="asterisk" format="1">
  <advance width="1166"/>
  <unicode hex="002A"/>
  <outline>
    <contour>
      <point x="537" y="628" type="curve"/>
      <point x="595" y="628"/>
      <point x="654" y="657"/>
      <point x="669" y="712" type="curve"/>
      <point x="669" y="808"/>
      <point x="624" y="926"/>
      <point x="607" y="1021" type="curve"/>
      <point x="672" y="965"/>
      <point x="746" y="867"/>
      <point x="819" y="823" type="curve" smooth="yes"/>
      <point x="841" y="810"/>
      <point x="862" y="802"/>
      <point x="885" y="800" type="curve"/>
      <point x="934" y="813"/>
      <point x="979" y="861"/>
      <point x="990" y="916" type="curve"/>
      <point x="981" y="1045"/>
      <point x="766" y="1049"/>
      <point x="647" y="1103" type="curve"/>
      <point x="765" y="1155"/>
      <point x="984" y="1166"/>
      <point x="990" y="1291" type="curve"/>
      <point x="979" y="1344"/>
      <point x="935" y="1392"/>
      <point x="885" y="1406" type="curve"/>
      <point x="792" y="1399"/>
      <point x="700" y="1269"/>
      <point x="623" y="1196" type="curve" smooth="yes"/>
      <point x="616" y="1190"/>
      <point x="610" y="1187"/>
      <point x="605" y="1183" type="curve"/>
      <point x="621" y="1273"/>
      <point x="668" y="1378"/>
      <point x="668" y="1468" type="curve" smooth="yes"/>
      <point x="668" y="1531"/>
      <point x="625" y="1569"/>
      <point x="582" y="1578" type="curve"/>
      <point x="524" y="1578"/>
      <point x="467" y="1550"/>
      <point x="452" y="1495" type="curve"/>
      <point x="452" y="1395"/>
      <point x="503" y="1283"/>
      <point x="514" y="1182" type="curve"/>
      <point x="445" y="1237"/>
      <point x="375" y="1336"/>
      <point x="301" y="1381" type="curve" smooth="yes"/>
      <point x="279" y="1395"/>
      <point x="256" y="1404"/>
      <point x="233" y="1406" type="curve"/>
      <point x="183" y="1392"/>
      <point x="140" y="1344"/>
      <point x="129" y="1291" type="curve"/>
      <point x="135" y="1165"/>
      <point x="349" y="1155"/>
      <point x="472" y="1103" type="curve"/>
      <point x="352" y="1052"/>
      <point x="138" y="1043"/>
      <point x="129" y="916" type="curve"/>
      <point x="140" y="861"/>
      <point x="184" y="813"/>
      <point x="234" y="800" type="curve"/>
      <point x="323" y="807"/>
      <point x="418" y="934"/>
      <point x="495" y="1008" type="curve" smooth="yes"/>
      <point x="502" y="1014"/>
      <point x="508" y="1018"/>
      <point x="512" y="1022" type="curve"/>
      <point x="498" y="934"/>
      <point x="451" y="828"/>
      <point x="451" y="739" type="curve" smooth="yes"/>
      <point x="451" y="675"/>
      <point x="494" y="637"/>
    </contour>
  </outline>
</glyph>
<glyph name="comma" format="1">
  <advance width="584"/>
  <unicode hex="002C"/>
  <outline>
    <contour>
      <point x="131" y="-250" type="line"/>
      <point x="243" y="-250" type="line"/>
      <point x="440" y="359" type="line"/>
      <point x="194" y="359" type="line"/>
    </contour>
  </outline>
</glyph>
<glyph name="hyphen" format="1">
  <advance width="890"/>
  <unicode hex="002D"/>
  <outline>
    <contour>
      <point x="101" y="636" type="line"/>
      <point x="788" y="636" type="line"/>
      <point x="788" y="760" type="line"/>
      <point x="101" y="760" type="line"/>
    </contour>
  </outline>
</glyph>
<glyph name="zero" format="1">
  <advance width="1402"/>
  <unicode hex="0030"/>
  <outline>
    <contour>
      <point x="708" y="123" type="curve" smooth="yes"/>
      <point x="349" y="123"/>
      <point x="316" y="416"/>
      <point x="316" y="778" type="curve" smooth="yes"/>
      <point x="316" y="1147"/>
      <point x="359" y="1453"/>
      <point x="708" y="1453" type="curve" smooth="yes"/>
      <point x="1055" y="1453"/>
      <point x="1101" y="1140"/>
      <point x="1101" y="778" type="curve" smooth="yes"/>
      <point x="1101" y="434"/>
      <point x="1067" y="123"/>
    </contour>
    <contour>
      <point x="708" y="-24" type="curve" smooth="yes"/>
      <point x="1165" y="-24"/>
      <point x="1292" y="279"/>
      <point x="1292" y="783" type="curve" smooth="yes"/>
      <point x="1292" y="1295"/>
      <point x="1148" y="1599"/>
      <point x="708" y="1599" type="curve" smooth="yes"/>
      <point x="256" y="1599"/>
      <point x="124" y="1289"/>
      <point x="124" y="770" type="curve" smooth="yes"/>
      <point x="124" y="271"/>
      <point x="266" y="-24"/>
    </contour>
  </outline>
</glyph>
<glyph name="two" format="1">
  <advance width="1250"/>
  <unicode hex="0032"/>
  <outline>
    <contour>
      <point x="121" y="0" type="line"/>
      <point x="1122" y="0" type="line"/>
      <point x="1122" y="141" type="line"/>
      <point x="327" y="141" type="line"/>
      <point x="837" y="602"/>
      <point x="1134" y="877"/>
      <point x="1134" y="1188" type="curve" smooth="yes"/>
      <point x="1134" y="1441"/>
      <point x="961" y="1599"/>
      <point x="630" y="1599" type="curve" smooth="yes"/>
      <point x="454" y="1599"/>
      <point x="225" y="1528"/>
      <point x="146" y="1458" type="curve"/>
      <point x="184" y="1319" type="line"/>
      <point x="200" y="1336"/>
      <point x="389" y="1458"/>
      <point x="613" y="1458" type="curve" smooth="yes"/>
      <point x="889" y="1458"/>
      <point x="940" y="1314"/>
      <point x="945" y="1163" type="curve" smooth="yes"/>
      <point x="954" y="914"/>
      <point x="590" y="602"/>
      <point x="121" y="164" type="curve"/>
    </contour>
  </outline>
</glyph>
<glyph name="nine" format="1">
  <advance width="1318"/>
  <unicode hex="0039"/>
  <outline>
    <contour>
      <point x="374" y="-24" type="curve" smooth="yes"/>
      <point x="896" y="-24"/>
      <point x="1186" y="505"/>
      <point x="1186" y="982" type="curve" smooth="yes"/>
      <point x="1186" y="1352"/>
      <point x="964" y="1575"/>
      <point x="646" y="1575" type="curve" smooth="yes"/>
      <point x="337" y="1575"/>
      <point x="120" y="1377"/>
      <point x="120" y="1070" type="curve" smooth="yes"/>
      <point x="120" y="772"/>
      <point x="363" y="606"/>
      <point x="610" y="606" type="curve" smooth="yes"/>
      <point x="703" y="606"/>
      <point x="919" y="642"/>
      <point x="999" y="802" type="curve"/>
      <point x="940" y="457"/>
      <point x="719" y="112"/>
      <point x="344" y="112" type="curve"/>
      <point x="344" y="112"/>
      <point x="369" y="-24"/>
    </contour>
    <contour>
      <point x="629" y="747" type="curve" smooth="yes"/>
      <point x="409" y="747"/>
      <point x="304" y="914"/>
      <point x="304" y="1068" type="curve" smooth="yes"/>
      <point x="304" y="1260"/>
      <point x="388" y="1434"/>
      <point x="664" y="1434" type="curve" smooth="yes"/>
      <point x="873" y="1434"/>
      <point x="988" y="1262"/>
      <point x="988" y="1103" type="curve" smooth="yes"/>
      <point x="988" y="913"/>
      <point x="888" y="747"/>
    </contour>
  </outline>
</glyph>
<glyph name="semicolon" format="1">
  <advance width="634"/>
  <unicode hex="003B"/>
  <outline>
    <contour>
      <point x="315" y="782" type="curve" smooth="yes"/>
      <point x="403" y="782"/>
      <point x="473" y="851"/>
      <point x="473" y="940" type="curve" smooth="yes"/>
      <point x="473" y="1028"/>
      <point x="403" y="1098"/>
      <point x="315" y="1098" type="curve" smooth="yes"/>
      <point x="226" y="1098"/>
      <point x="156" y="1028"/>
      <point x="156" y="940" type="curve" smooth="yes"/>
      <point x="156" y="851"/>
      <point x="226" y="782"/>
    </contour>
    <contour>
      <point x="131.0" y="-250.0" type="line"/>
      <point x="243.0" y="-250.0" type="line"/>
      <point x="440.0" y="359.0" type="line"/>
      <point x="194.0" y="359.0" type="line"/>
    </contour>
  </outline>
</glyph>
<glyph name="greater" format="1">
  <advance width="1587"/>
  <unicode hex="003E"/>
  <outline>
    <contour>
      <point x="161" y="-15" type="line"/>
      <point x="1332" y="538" type="line"/>
      <point x="1332" y="678" type="line"/>
      <point x="161" y="1232" type="line"/>
      <point x="161" y="1058" type="line"/>
      <point x="1142" y="612" type="line"/>
      <point x="161" y="169" type="line"/>
    </contour>
  </outline>
</glyph>
<glyph name="at" format="1">
  <advance width="1774"/>
  <unicode hex="0040"/>
  <outline>
    <contour>
      <point x="919" y="-126" type="curve" smooth="yes"/>
      <point x="1075" y="-126"/>
      <point x="1257" y="-87"/>
      <point x="1391" y="-1" type="curve"/>
      <point x="1344" y="97" type="line"/>
      <point x="1211.80618465" y="24.9919867612"/>
      <point x="1078" y="-11"/>
      <point x="920" y="-11" type="curve" smooth="yes"/>
      <point x="551" y="-11"/>
      <point x="273" y="203"/>
      <point x="273" y="646" type="curve" smooth="yes"/>
      <point x="273" y="1004"/>
      <point x="497" y="1340"/>
      <point x="960" y="1340" type="curve" smooth="yes"/>
      <point x="1399" y="1340"/>
      <point x="1614" y="1044"/>
      <point x="1614" y="705" type="curve" smooth="yes"/>
      <point x="1614" y="437"/>
      <point x="1502" y="268"/>
      <point x="1374" y="268" type="curve" smooth="yes"/>
      <point x="1312" y="268"/>
      <point x="1239" y="284"/>
      <point x="1239" y="435" type="curve" smooth="yes"/>
      <point x="1239" y="454"/>
      <point x="1240" y="474"/>
      <point x="1243" y="498" type="curve" smooth="yes"/>
      <point x="1308" y="1078" type="line"/>
      <point x="1201" y="1078" type="line"/>
      <point x="1179" y="975" type="line"/>
      <point x="1141" y="1029"/>
      <point x="1041" y="1112"/>
      <point x="895" y="1112" type="curve" smooth="yes"/>
      <point x="626" y="1112"/>
      <point x="473" y="896"/>
      <point x="473" y="625" type="curve" smooth="yes"/>
      <point x="473" y="405"/>
      <point x="590" y="205"/>
      <point x="844" y="205" type="curve" smooth="yes"/>
      <point x="947" y="205"/>
      <point x="1079" y="240"/>
      <point x="1136" y="344" type="curve"/>
      <point x="1154" y="260"/>
      <point x="1244" y="181"/>
      <point x="1365" y="181" type="curve" smooth="yes"/>
      <point x="1581" y="181"/>
      <point x="1734" y="411"/>
      <point x="1734" y="723" type="curve" smooth="yes"/>
      <point x="1734" y="1144"/>
      <point x="1412" y="1449"/>
      <point x="955" y="1449" type="curve" smooth="yes"/>
      <point x="472" y="1449"/>
      <point x="119" y="1115"/>
      <point x="119" y="648" type="curve" smooth="yes"/>
      <point x="119" y="187"/>
      <point x="425" y="-126"/>
    </contour>
    <contour>
      <point x="870" y="295" type="curve" smooth="yes"/>
      <point x="675" y="295"/>
      <point x="618" y="458"/>
      <point x="618" y="625" type="curve" smooth="yes"/>
      <point x="618" y="906"/>
      <point x="743" y="1011"/>
      <point x="914" y="1011" type="curve" smooth="yes"/>
      <point x="1038" y="1011"/>
      <point x="1119" y="949"/>
      <point x="1162" y="889" type="curve"/>
      <point x="1110" y="408" type="line"/>
      <point x="1103" y="390"/>
      <point x="1020" y="295"/>
    </contour>
  </outline>
</glyph>
<glyph name="A" format="1">
  <advance width="1367"/>
  <unicode hex="0041"/>
  <outline>
    <contour>
      <point x="21" y="0" type="line"/>
      <point x="211" y="0" type="line"/>
      <point x="356" y="426" type="line"/>
      <point x="1023" y="426" type="line"/>
      <point x="1165" y="0" type="line"/>
      <point x="1353" y="0" type="line"/>
      <point x="798" y="1575" type="line"/>
      <point x="554" y="1575" type="line"/>
    </contour>
    <contour>
      <point x="408" y="572" type="line"/>
      <point x="680" y="1440" type="line"/>
      <point x="681" y="1440" type="line"/>
      <point x="969" y="572" type="line"/>
    </contour>
    <contour>
      <point x="683" y="1575" type="move" name="top"/>
    </contour>
    <contour>
      <point x="1230" y="10" type="move" name="ogonek"/>
    </contour>
  </outline>
</glyph>
<glyph name="D" format="1">
  <advance width="1494"/>
  <unicode hex="0044"/>
  <outline>
    <contour>
      <point x="321" y="141" type="line"/>
      <point x="321" y="1431" type="line"/>
      <point x="609" y="1431" type="line" smooth="yes"/>
      <point x="1001" y="1431"/>
      <point x="1197" y="1209"/>
      <point x="1197" y="788" type="curve" smooth="yes"/>
      <point x="1197" y="344"/>
      <point x="1011" y="141"/>
      <point x="608" y="141" type="curve" smooth="yes"/>
    </contour>
    <contour>
      <point x="132" y="0" type="line"/>
      <point x="588" y="0" type="line" smooth="yes"/>
      <point x="1144" y="0"/>
      <point x="1386" y="247"/>
      <point x="1386" y="788" type="curve" smooth="yes"/>
      <point x="1386" y="1325"/>
      <point x="1093" y="1575"/>
      <point x="582" y="1575" type="curve" smooth="yes"/>
      <point x="132" y="1575" type="line"/>
    </contour>
    <contour>
      <point x="675" y="1575" type="move" name="top"/>
    </contour>
    <contour>
      <point x="675" y="788" type="move" name="center"/>
    </contour>
  </outline>
</glyph>
<glyph name="E" format="1">
  <advance width="1228"/>
  <unicode hex="0045"/>
  <outline>
    <contour>
      <point x="239" y="0" type="line"/>
      <point x="1061" y="0" type="line"/>
      <point x="1061" y="141" type="line"/>
      <point x="429" y="141" type="line"/>
      <point x="429" y="762" type="line"/>
      <point x="978" y="762" type="line"/>
      <point x="978" y="903" type="line"/>
      <point x="429" y="903" type="line"/>
      <point x="429" y="1434" type="line"/>
      <point x="1062" y="1434" type="line"/>
      <point x="1062" y="1575" type="line"/>
      <point x="239" y="1575" type="line"/>
    </contour>
    <contour>
      <point x="615" y="1575" type="move" name="top"/>
    </contour>
    <contour>
      <point x="1105" y="10" type="move" name="ogonek"/>
    </contour>
    <contour>
      <point x="615" y="0" type="move" name="bottom"/>
    </contour>
  </outline>
</glyph>
<glyph name="F" format="1">
  <advance width="1179"/>
  <unicode hex="0046"/>
  <outline>
    <contour>
      <point x="268" y="0" type="line"/>
      <point x="458" y="0" type="line"/>
      <point x="458" y="764" type="line"/>
      <point x="1091" y="764" type="line"/>
      <point x="1091" y="909" type="line"/>
      <point x="458" y="909" type="line"/>
      <point x="458" y="1432" type="line"/>
      <point x="1146" y="1432" type="line"/>
      <point x="1146" y="1575" type="line"/>
      <point x="268" y="1575" type="line"/>
    </contour>
  </outline>
</glyph>
<glyph name="G" format="1">
  <advance width="1431"/>
  <unicode hex="0047"/>
  <outline>
    <contour>
      <point x="857.0" y="-24.0" type="curve" smooth="yes"/>
      <point x="1099.0" y="-24.0"/>
      <point x="1234.0" y="40.0"/>
      <point x="1402.0" y="150.0" type="curve"/>
      <point x="1402.0" y="854.0" type="line"/>
      <point x="810.0" y="854.0" type="line"/>
      <point x="810.0" y="713.0" type="line"/>
      <point x="1239.0" y="713.0" type="line"/>
      <point x="1239.0" y="237.0" type="line"/>
      <point x="1216.0" y="221.0"/>
      <point x="1078.0" y="121.0"/>
      <point x="879.0" y="121.0" type="curve" smooth="yes"/>
      <point x="491.0" y="121.0"/>
      <point x="322.0" y="312.0"/>
      <point x="322.0" y="793.0" type="curve" smooth="yes"/>
      <point x="322.0" y="1263.0"/>
      <point x="491" y="1456"/>
      <point x="831" y="1456" type="curve" smooth="yes"/>
      <point x="1055" y="1456"/>
      <point x="1256" y="1347"/>
      <point x="1255" y="1345" type="curve"/>
      <point x="1297" y="1482" type="line"/>
      <point x="1252" y="1515"/>
      <point x="1034.0" y="1599.0"/>
      <point x="825.0" y="1599.0" type="curve" smooth="yes"/>
      <point x="341.0" y="1599.0"/>
      <point x="133.0" y="1313.0"/>
      <point x="133.0" y="789.0" type="curve" smooth="yes"/>
      <point x="133.0" y="287.0"/>
      <point x="338.0" y="-24.0"/>
    </contour>
    <contour>
      <point x="715.0" y="1575.0" type="move" name="top"/>
    </contour>
    <contour>
      <point x="715.0" y="0.0" type="move" name="bottom"/>
    </contour>
  </outline>
</glyph>
<glyph name="H" format="1">
  <advance width="1454"/>
  <unicode hex="0048"/>
  <outline>
    <contour>
      <point x="132" y="0" type="line"/>
      <point x="321" y="0" type="line"/>
      <point x="321" y="743" type="line"/>
      <point x="1133" y="743" type="line"/>
      <point x="1133" y="0" type="line"/>
      <point x="1322" y="0" type="line"/>
      <point x="1322" y="1575" type="line"/>
      <point x="1133" y="1575" type="line"/>
      <point x="1133" y="881" type="line"/>
      <point x="321" y="881" type="line"/>
      <point x="321" y="1575" type="line"/>
      <point x="132" y="1575" type="line"/>
    </contour>
    <contour>
      <point x="727" y="1575" type="move" name="top"/>
    </contour>
    <contour>
      <point x="727" y="788" type="move" name="center"/>
    </contour>
  </outline>
</glyph>
<glyph name="I" format="1">
  <advance width="883"/>
  <unicode hex="0049"/>
  <outline>
    <contour>
      <point x="106" y="0" type="line"/>
      <point x="777" y="0" type="line"/>
      <point x="777" y="128" type="line"/>
      <point x="536" y="128" type="line"/>
      <point x="536" y="1447" type="line"/>
      <point x="777" y="1447" type="line"/>
      <point x="777" y="1575" type="line"/>
      <point x="106" y="1575" type="line"/>
      <point x="106" y="1447" type="line"/>
      <point x="347" y="1447" type="line"/>
      <point x="347" y="128" type="line"/>
      <point x="106" y="128" type="line"/>
    </contour>
    <contour>
      <point x="441" y="1575" type="move" name="top"/>
    </contour>
    <contour>
      <point x="795" y="10" type="move" name="ogonek"/>
    </contour>
  </outline>
</glyph>
<glyph name="L" format="1">
  <advance width="1187"/>
  <unicode hex="004C"/>
  <outline>
    <contour>
      <point x="243" y="0" type="line"/>
      <point x="1145" y="0" type="line"/>
      <point x="1145" y="141" type="line"/>
      <point x="432" y="141" type="line"/>
      <point x="432" y="1575" type="line"/>
      <point x="243" y="1575" type="line"/>
    </contour>
    <contour>
      <point x="594" y="1575" type="move" name="top"/>
    </contour>
    <contour>
      <point x="594" y="0" type="move" name="bottom"/>
    </contour>
  </outline>
</glyph>
<glyph name="M" format="1">
  <advance width="1647.0"/>
  <unicode hex="004D"/>
  <outline>
    <contour>
      <point x="132.0" y="0.0" type="line"/>
      <point x="321.0" y="0.0" type="line"/>
      <point x="321.0" y="1024" type="line" smooth="yes"/>
      <point x="313" y="1257" type="line"/>
      <point x="754.0" y="482" type="line"/>
      <point x="904.0" y="482.0" type="line"/>
      <point x="1335" y="1257" type="line"/>
      <point x="1326.0" y="1024" type="line" smooth="yes"/>
      <point x="1326.0" y="0.0" type="line"/>
      <point x="1515.0" y="0.0" type="line"/>
      <point x="1515.0" y="1575.0" type="line"/>
      <point x="1335.0" y="1575" type="line"/>
      <point x="828" y="673" type="line"/>
      <point x="320.0" y="1575" type="line"/>
      <point x="132.0" y="1575.0" type="line"/>
    </contour>
  </outline>
</glyph>
<glyph name="N" format="1">
  <advance width="1643"/>
  <unicode hex="004E"/>
  <outline>
    <contour>
      <point x="168" y="0" type="line"/>
      <point x="357" y="0" type="line"/>
      <point x="357" y="1049" type="line" smooth="yes"/>
      <point x="357" y="1049"/>
      <point x="350" y="1261"/>
      <point x="350" y="1261" type="curve"/>
      <point x="350" y="1261"/>
      <point x="1308" y="0"/>
      <point x="1308" y="0" type="curve"/>
      <point x="1474" y="0" type="line"/>
      <point x="1474" y="1575" type="line"/>
      <point x="1285" y="1575" type="line"/>
      <point x="1285" y="568" type="line"/>
      <point x="1285" y="568"/>
      <point x="1292" y="293"/>
      <point x="1292" y="293" type="curve" smooth="yes"/>
      <point x="1292" y="293"/>
      <point x="316" y="1575"/>
      <point x="316" y="1575" type="curve"/>
      <point x="168" y="1575" type="line"/>
    </contour>
    <contour>
      <point x="821" y="1575" type="move" name="top"/>
    </contour>
    <contour>
      <point x="821" y="0" type="move" name="bottom"/>
    </contour>
  </outline>
</glyph>
<glyph name="O" format="1">
  <advance width="1668"/>
  <unicode hex="004F"/>
  <outline>
    <contour>
      <point x="834" y="123" type="curve" smooth="yes"/>
      <point x="408" y="123"/>
      <point x="299" y="449"/>
      <point x="299" y="788" type="curve" smooth="yes"/>
      <point x="299" y="1109"/>
      <point x="406" y="1453"/>
      <point x="834" y="1453" type="curve" smooth="yes"/>
      <point x="1250" y="1453"/>
      <point x="1369" y="1123"/>
      <point x="1369" y="788" type="curve" smooth="yes"/>
      <point x="1369" y="451"/>
      <point x="1248" y="123"/>
    </contour>
    <contour>
      <point x="834" y="-24" type="curve" smooth="yes"/>
      <point x="1325" y="-24"/>
      <point x="1560" y="301"/>
      <point x="1560" y="788" type="curve" smooth="yes"/>
      <point x="1560" y="1281"/>
      <point x="1324" y="1599"/>
      <point x="834" y="1599" type="curve" smooth="yes"/>
      <point x="344" y="1599"/>
      <point x="108" y="1280"/>
      <point x="108" y="788" type="curve" smooth="yes"/>
      <point x="108" y="299"/>
      <point x="343" y="-24"/>
    </contour>
    <contour>
      <point x="835" y="1575" type="move" name="top"/>
    </contour>
  </outline>
</glyph>
<glyph name="P" format="1">
  <advance width="1348"/>
  <unicode hex="0050"/>
  <outline>
    <contour>
      <point x="229" y="0" type="line"/>
      <point x="418" y="0" type="line"/>
      <point x="418" y="665" type="line"/>
      <point x="563" y="665" type="line" smooth="yes"/>
      <point x="962" y="665"/>
      <point x="1227" y="806"/>
      <point x="1227" y="1125" type="curve" smooth="yes"/>
      <point x="1227" y="1447"/>
      <point x="1031" y="1575"/>
      <point x="649" y="1575" type="curve" smooth="yes"/>
      <point x="229" y="1575" type="line"/>
    </contour>
    <contour>
      <point x="418" y="806" type="line"/>
      <point x="418" y="1434" type="line"/>
      <point x="648" y="1434" type="line" smooth="yes"/>
      <point x="956" y="1434"/>
      <point x="1038" y="1328"/>
      <point x="1038" y="1128" type="curve" smooth="yes"/>
      <point x="1038" y="903"/>
      <point x="869" y="806"/>
      <point x="545" y="806" type="curve" smooth="yes"/>
    </contour>
  </outline>
</glyph>
<glyph name="Q" format="1">
  <advance width="1668"/>
  <unicode hex="0051"/>
  <outline>
    <contour>
      <point x="1045.0" y="-433.0" type="line"/>
      <point x="1182.0" y="-360.0" type="line"/>
      <point x="979.0" y="-14.0" type="line"/>
      <point x="1371.0" y="45.0"/>
      <point x="1560.0" y="352.0"/>
      <point x="1560.0" y="788.0" type="curve" smooth="yes"/>
      <point x="1560.0" y="1281.0"/>
      <point x="1324.0" y="1599.0"/>
      <point x="834.0" y="1599.0" type="curve" smooth="yes"/>
      <point x="344.0" y="1599.0"/>
      <point x="108.0" y="1280.0"/>
      <point x="108.0" y="788.0" type="curve" smooth="yes"/>
      <point x="108.0" y="306.0"/>
      <point x="336.0" y="-14.0"/>
      <point x="811.0" y="-24.0" type="curve" smooth="yes"/>
      <point x="813.0" y="-24.0"/>
      <point x="816.0" y="-24.0"/>
      <point x="818.0" y="-24.0" type="curve"/>
    </contour>
    <contour>
      <point x="834.0" y="123.0" type="curve" smooth="yes"/>
      <point x="408.0" y="123.0"/>
      <point x="299.0" y="449.0"/>
      <point x="299.0" y="788.0" type="curve" smooth="yes"/>
      <point x="299.0" y="1109.0"/>
      <point x="406.0" y="1453.0"/>
      <point x="834.0" y="1453.0" type="curve" smooth="yes"/>
      <point x="1250.0" y="1453.0"/>
      <point x="1369.0" y="1123.0"/>
      <point x="1369.0" y="788.0" type="curve" smooth="yes"/>
      <point x="1369.0" y="451.0"/>
      <point x="1248.0" y="123.0"/>
    </contour>
  </outline>
</glyph>
<glyph name="R" format="1">
  <advance width="1343"/>
  <unicode hex="0052"/>
  <outline>
    <contour>
      <point x="155" y="0" type="line"/>
      <point x="344" y="0" type="line"/>
      <point x="344" y="732" type="line"/>
      <point x="718" y="732" type="line"/>
      <point x="1116" y="0" type="line"/>
      <point x="1297" y="0" type="line"/>
      <point x="1297" y="50" type="line"/>
      <point x="905" y="757" type="line"/>
      <point x="1115" y="826"/>
      <point x="1217" y="960"/>
      <point x="1217" y="1173" type="curve" smooth="yes"/>
      <point x="1217" y="1512"/>
      <point x="946" y="1575"/>
      <point x="686" y="1575" type="curve" smooth="yes"/>
      <point x="155" y="1575" type="line"/>
    </contour>
    <contour>
      <point x="344" y="873" type="line"/>
      <point x="344" y="1434" type="line"/>
      <point x="703" y="1434" type="line" smooth="yes"/>
      <point x="934" y="1434"/>
      <point x="1033" y="1330"/>
      <point x="1033" y="1172" type="curve" smooth="yes"/>
      <point x="1033" y="998"/>
      <point x="937" y="873"/>
      <point x="691" y="873" type="curve" smooth="yes"/>
    </contour>
    <contour>
      <point x="671" y="1575" type="move" name="top"/>
    </contour>
    <contour>
      <point x="671" y="0" type="move" name="bottom"/>
    </contour>
  </outline>
</glyph>
<glyph name="U" format="1">
  <advance width="1470"/>
  <unicode hex="0055"/>
  <outline>
    <contour>
      <point x="733" y="-24" type="curve" smooth="yes"/>
      <point x="1116" y="-24"/>
      <point x="1350" y="154"/>
      <point x="1350" y="509" type="curve" smooth="yes"/>
      <point x="1350" y="1575" type="line"/>
      <point x="1161" y="1575" type="line"/>
      <point x="1161" y="508" type="line" smooth="yes"/>
      <point x="1161" y="236"/>
      <point x="1015" y="117"/>
      <point x="733" y="117" type="curve" smooth="yes"/>
      <point x="451" y="117"/>
      <point x="309" y="234"/>
      <point x="309" y="507" type="curve" smooth="yes"/>
      <point x="309" y="1575" type="line"/>
      <point x="120" y="1575" type="line"/>
      <point x="120" y="509" type="line" smooth="yes"/>
      <point x="120" y="154"/>
      <point x="365" y="-24"/>
    </contour>
    <contour>
      <point x="729" y="1575" type="move" name="top"/>
    </contour>
    <contour>
      <point x="1311" y="10" type="move" name="ogonek"/>
    </contour>
  </outline>
</glyph>
<glyph name="V" format="1">
  <advance width="1308"/>
  <unicode hex="0056"/>
  <outline>
    <contour>
      <point x="520" y="0" type="line"/>
      <point x="797" y="0" type="line"/>
      <point x="1369" y="1575" type="line"/>
      <point x="1169" y="1575" type="line"/>
      <point x="730" y="312" type="line" smooth="yes"/>
      <point x="659" y="125" type="line"/>
      <point x="657" y="125" type="line"/>
      <point x="589" y="313" type="line"/>
      <point x="135" y="1575" type="line"/>
      <point x="-61" y="1575" type="line"/>
    </contour>
  </outline>
</glyph>
<glyph name="Y" format="1">
  <advance width="1388"/>
  <unicode hex="0059"/>
  <outline>
    <contour>
      <point x="591" y="0" type="line"/>
      <point x="780" y="0" type="line"/>
      <point x="780" y="732" type="line"/>
      <point x="1430" y="1575" type="line"/>
      <point x="1222" y="1575" type="line"/>
      <point x="685" y="877" type="line"/>
      <point x="162" y="1575" type="line"/>
      <point x="-42" y="1575" type="line"/>
      <point x="591" y="729" type="line"/>
    </contour>
  </outline>
</glyph>
<glyph name="Z" format="1">
  <advance width="1183"/>
  <unicode hex="005A"/>
  <outline>
    <contour>
      <point x="148" y="0" type="line"/>
      <point x="1115" y="0" type="line"/>
      <point x="1115" y="141" type="line"/>
      <point x="345" y="141" type="line"/>
      <point x="1077" y="1435" type="line"/>
      <point x="1077" y="1575" type="line"/>
      <point x="186" y="1575" type="line"/>
      <point x="186" y="1434" type="line"/>
      <point x="885" y="1434" type="line"/>
      <point x="148" y="150" type="line"/>
    </contour>
    <contour>
      <point x="592" y="1575" type="move" name="top"/>
    </contour>
  </outline>
</glyph>
<glyph name="bracketright" format="1">
  <advance width="818"/>
  <unicode hex="005D"/>
  <outline>
    <contour>
      <point x="650" y="1575" type="line"/>
      <point x="182" y="1575" type="line"/>
      <point x="182" y="1434" type="line"/>
      <point x="461" y="1434" type="line"/>
      <point x="461" y="-79" type="line"/>
      <point x="182" y="-79" type="line"/>
      <point x="182" y="-220" type="line"/>
      <point x="650" y="-220" type="line"/>
    </contour>
  </outline>
</glyph>
<glyph name="a" format="1">
  <advance width="1112"/>
  <unicode hex="0061"/>
  <outline>
    <contour>
      <point x="424" y="-22" type="curve" smooth="yes"/>
      <point x="624" y="-22"/>
      <point x="787" y="101"/>
      <point x="808" y="177" type="curve"/>
      <point x="808" y="0" type="line"/>
      <point x="997" y="0" type="line"/>
      <point x="997" y="656" type="line" smooth="yes"/>
      <point x="997" y="918"/>
      <point x="901" y="1126"/>
      <point x="532" y="1126" type="curve" smooth="yes"/>
      <point x="374" y="1126"/>
      <point x="214" y="1092"/>
      <point x="140" y="1044" type="curve"/>
      <point x="181" y="898" type="line"/>
      <point x="276" y="944"/>
      <point x="415" y="973"/>
      <point x="537" y="973" type="curve" smooth="yes"/>
      <point x="723" y="973"/>
      <point x="808" y="907"/>
      <point x="808" y="676" type="curve"/>
      <point x="344" y="676"/>
      <point x="74" y="646"/>
      <point x="74" y="308" type="curve" smooth="yes"/>
      <point x="76" y="120"/>
      <point x="220" y="-22"/>
    </contour>
    <contour>
      <point x="440" y="120" type="curve" smooth="yes"/>
      <point x="350" y="120"/>
      <point x="249" y="171"/>
      <point x="249" y="304" type="curve" smooth="yes"/>
      <point x="249" y="469"/>
      <point x="327" y="546"/>
      <point x="808" y="546" type="curve"/>
      <point x="808" y="301"/>
      <point x="667" y="120"/>
    </contour>
    <contour>
      <point x="554" y="1098" type="move" name="top"/>
    </contour>
    <contour>
      <point x="995" y="10" type="move" name="ogonek"/>
    </contour>
  </outline>
</glyph>
<glyph name="d" format="1">
  <advance width="1216"/>
  <unicode hex="0064"/>
  <outline>
    <contour>
      <point x="596" y="-32" type="curve" smooth="yes"/>
      <point x="726" y="-31"/>
      <point x="857" y="30"/>
      <point x="904" y="126" type="curve"/>
      <point x="904" y="0" type="line"/>
      <point x="1093" y="0" type="line"/>
      <point x="1093" y="1521" type="line"/>
      <point x="904" y="1521" type="line"/>
      <point x="904" y="959" type="line"/>
      <point x="836" y="1084"/>
      <point x="678" y="1120"/>
      <point x="564" y="1120" type="curve" smooth="yes"/>
      <point x="313" y="1120"/>
      <point x="96" y="917"/>
      <point x="96" y="537" type="curve" smooth="yes"/>
      <point x="96.0" y="154.205882353"/>
      <point x="322.0" y="-32.0"/>
    </contour>
    <contour>
      <point x="605" y="118" type="curve" smooth="yes"/>
      <point x="381.778262401" y="118.0"/>
      <point x="285.0" y="297.474901299"/>
      <point x="285" y="550" type="curve" smooth="yes"/>
      <point x="285" y="827"/>
      <point x="421" y="969"/>
      <point x="605" y="969" type="curve" smooth="yes"/>
      <point x="748" y="969"/>
      <point x="881" y="895"/>
      <point x="904" y="837" type="curve"/>
      <point x="904" y="260" type="line"/>
      <point x="883" y="205"/>
      <point x="753" y="118"/>
    </contour>
  </outline>
</glyph>
<glyph name="e" format="1">
  <advance width="1163"/>
  <unicode hex="0065"/>
  <outline>
    <contour>
      <point x="662" y="-23" type="curve" smooth="yes"/>
      <point x="913" y="-23"/>
      <point x="1040" y="76"/>
      <point x="1072" y="109" type="curve"/>
      <point x="1024" y="241" type="line"/>
      <point x="1005" y="241" type="line"/>
      <point x="936" y="173"/>
      <point x="802" y="134"/>
      <point x="676" y="134" type="curve" smooth="yes"/>
      <point x="444" y="134"/>
      <point x="303" y="275"/>
      <point x="295" y="499" type="curve"/>
      <point x="1092" y="499" type="line"/>
      <point x="1092" y="532" type="line" smooth="yes"/>
      <point x="1092" y="843"/>
      <point x="956" y="1124"/>
      <point x="625" y="1124" type="curve" smooth="yes"/>
      <point x="332" y="1124"/>
      <point x="96" y="908"/>
      <point x="96" y="543" type="curve" smooth="yes"/>
      <point x="96" y="176"/>
      <point x="370" y="-23"/>
    </contour>
    <contour>
      <point x="299" y="633" type="line"/>
      <point x="322" y="828"/>
      <point x="440" y="975"/>
      <point x="623" y="973" type="curve" smooth="yes"/>
      <point x="851" y="971"/>
      <point x="904" y="765"/>
      <point x="910" y="633" type="curve"/>
    </contour>
    <contour>
      <point x="569" y="1098" type="move" name="top"/>
    </contour>
    <contour>
      <point x="1022" y="10" type="move" name="ogonek"/>
    </contour>
    <contour>
      <point x="569" y="0" type="move" name="bottom"/>
    </contour>
  </outline>
</glyph>
<glyph name="f" format="1">
  <advance width="749"/>
  <unicode hex="0066"/>
  <outline>
    <contour>
      <point x="217" y="0" type="line"/>
      <point x="406" y="0" type="line"/>
      <point x="406" y="966" type="line"/>
      <point x="701" y="966" type="line"/>
      <point x="701" y="1098" type="line"/>
      <point x="397" y="1098" type="line"/>
      <point x="397" y="1339"/>
      <point x="445" y="1378"/>
      <point x="602" y="1378" type="curve" smooth="yes"/>
      <point x="643" y="1378"/>
      <point x="709" y="1365"/>
      <point x="709" y="1365" type="curve"/>
      <point x="709" y="1512" type="line"/>
      <point x="651" y="1519"/>
      <point x="651" y="1525"/>
      <point x="573" y="1525" type="curve" smooth="yes"/>
      <point x="290" y="1525"/>
      <point x="217" y="1403"/>
      <point x="217" y="1137" type="curve" smooth="yes"/>
      <point x="217" y="1098" type="line"/>
      <point x="24" y="1098" type="line"/>
      <point x="24" y="966" type="line"/>
      <point x="217" y="966" type="line"/>
    </contour>
  </outline>
</glyph>
<glyph name="j" format="1">
  <advance width="555"/>
  <unicode hex="006A"/>
  <outline>
    <contour>
      <point x="110" y="-397" type="curve" smooth="yes"/>
      <point x="355" y="-397"/>
      <point x="392" y="-220"/>
      <point x="392" y="12" type="curve" smooth="yes"/>
      <point x="392" y="1098" type="line"/>
      <point x="203" y="1098" type="line"/>
      <point x="203" y="-12" type="line" smooth="yes"/>
      <point x="203" y="-228"/>
      <point x="135" y="-244"/>
      <point x="27" y="-244" type="curve" smooth="yes"/>
      <point x="-6" y="-244"/>
      <point x="-18" y="-244"/>
      <point x="-57" y="-240" type="curve"/>
      <point x="-57" y="-389" type="line"/>
      <point x="-23" y="-393"/>
      <point x="0" y="-397"/>
    </contour>
    <contour>
      <point x="301" y="1265" type="curve" smooth="yes"/>
      <point x="389" y="1265"/>
      <point x="434" y="1330"/>
      <point x="434" y="1393" type="curve" smooth="yes"/>
      <point x="434" y="1457"/>
      <point x="388" y="1521"/>
      <point x="301" y="1521" type="curve" smooth="yes"/>
      <point x="211" y="1521"/>
      <point x="166" y="1458"/>
      <point x="166" y="1392" type="curve" smooth="yes"/>
      <point x="166" y="1330"/>
      <point x="212" y="1265"/>
    </contour>
  </outline>
</glyph>
<glyph name="k" format="1">
  <advance width="1130"/>
  <unicode hex="006B"/>
  <outline>
    <contour>
      <point x="123" y="0" type="line"/>
      <point x="312" y="0" type="line"/>
      <point x="312" y="434" type="line"/>
      <point x="474" y="560" type="line"/>
      <point x="936" y="0" type="line"/>
      <point x="1118" y="0" type="line"/>
      <point x="1118" y="54" type="line"/>
      <point x="614" y="645" type="line"/>
      <point x="1086" y="1051" type="line"/>
      <point x="1086" y="1098" type="line"/>
      <point x="881" y="1098" type="line"/>
      <point x="313" y="618" type="line"/>
      <point x="312" y="618" type="line"/>
      <point x="312" y="1520" type="line"/>
      <point x="123" y="1520" type="line"/>
    </contour>
    <contour>
      <point x="555" y="0" type="move" name="bottom"/>
    </contour>
  </outline>
</glyph>
<glyph name="l" format="1">
  <advance width="604"/>
  <unicode hex="006C"/>
  <outline>
    <contour>
      <point x="480" y="-10" type="curve" smooth="yes"/>
      <point x="567" y="-10" type="line"/>
      <point x="567" y="141" type="line"/>
      <point x="342" y="141"/>
      <point x="332" y="171"/>
      <point x="332" y="331" type="curve" smooth="yes"/>
      <point x="332" y="1521" type="line"/>
      <point x="143" y="1521" type="line"/>
      <point x="143" y="333" type="line" smooth="yes"/>
      <point x="143" y="136"/>
      <point x="150" y="-10"/>
    </contour>
    <contour>
      <point x="302" y="1098" type="move" name="top"/>
    </contour>
    <contour>
      <point x="584" y="1098" type="move" name="topright"/>
    </contour>
    <contour>
      <point x="302" y="0" type="move" name="bottom"/>
    </contour>
  </outline>
</glyph>
<glyph name="n" format="1">
  <advance width="1206"/>
  <unicode hex="006E"/>
  <outline>
    <contour>
      <point x="123" y="0" type="line"/>
      <point x="312" y="0" type="line"/>
      <point x="312" y="794" type="line" smooth="yes"/>
      <point x="312.0" y="839.699314192"/>
      <point x="467" y="970"/>
      <point x="663" y="970" type="curve" smooth="yes"/>
      <point x="773" y="970"/>
      <point x="902" y="928"/>
      <point x="902" y="752" type="curve" smooth="yes"/>
      <point x="902" y="0" type="line"/>
      <point x="1091" y="0" type="line"/>
      <point x="1091" y="735" type="line" smooth="yes"/>
      <point x="1091" y="995"/>
      <point x="932" y="1126"/>
      <point x="724" y="1126" type="curve" smooth="yes"/>
      <point x="571" y="1126"/>
      <point x="402" y="1057"/>
      <point x="312" y="917" type="curve"/>
      <point x="312" y="1098" type="line"/>
      <point x="123" y="1098" type="line"/>
    </contour>
    <contour>
      <point x="583" y="1098" type="move" name="top"/>
    </contour>
    <contour>
      <point x="583" y="0" type="move" name="bottom"/>
    </contour>
  </outline>
</glyph>
<glyph name="q" format="1">
  <advance width="1216"/>
  <unicode hex="0071"/>
  <outline>
    <contour>
      <point x="904" y="-413" type="line"/>
      <point x="1093" y="-413" type="line"/>
      <point x="1093" y="1098" type="line"/>
      <point x="904" y="1098" type="line"/>
      <point x="904" y="964" type="line"/>
      <point x="836" y="1074"/>
      <point x="705" y="1121"/>
      <point x="574" y="1121" type="curve" smooth="yes"/>
      <point x="288" y="1121"/>
      <point x="96" y="918"/>
      <point x="96" y="560" type="curve" smooth="yes"/>
      <point x="96.0" y="179.904503238"/>
      <point x="310.7016323" y="-22.0"/>
      <point x="583" y="-22" type="curve" smooth="yes"/>
      <point x="714" y="-22"/>
      <point x="829" y="22"/>
      <point x="904" y="114" type="curve"/>
    </contour>
    <contour>
      <point x="602" y="116" type="curve" smooth="yes"/>
      <point x="401" y="116"/>
      <point x="285" y="269"/>
      <point x="285" y="544" type="curve" smooth="yes"/>
      <point x="285" y="771"/>
      <point x="338" y="971"/>
      <point x="584" y="971" type="curve" smooth="yes"/>
      <point x="672" y="971"/>
      <point x="827" y="937"/>
      <point x="904" y="834" type="curve"/>
      <point x="904" y="246" type="line"/>
      <point x="824" y="144"/>
      <point x="667" y="116"/>
    </contour>
  </outline>
</glyph>
<glyph name="r" format="1">
  <advance width="724"/>
  <unicode hex="0072"/>
  <outline>
    <contour>
      <point x="123" y="0" type="line"/>
      <point x="312" y="0" type="line"/>
      <point x="312" y="838" type="line"/>
      <point x="393" y="917"/>
      <point x="495" y="940"/>
      <point x="579" y="940" type="curve" smooth="yes"/>
      <point x="637" y="940"/>
      <point x="687" y="929"/>
      <point x="715" y="917" type="curve"/>
      <point x="737" y="1082" type="line"/>
      <point x="710" y="1096"/>
      <point x="666" y="1103"/>
      <point x="628" y="1103" type="curve" smooth="yes"/>
      <point x="493" y="1103"/>
      <point x="375" y="1031"/>
      <point x="313" y="962" type="curve"/>
      <point x="312" y="962" type="line"/>
      <point x="312" y="1098" type="line"/>
      <point x="123" y="1098" type="line"/>
    </contour>
    <contour>
      <point x="353" y="1098" type="move" name="top"/>
    </contour>
    <contour>
      <point x="353" y="0" type="move" name="bottom"/>
    </contour>
  </outline>
</glyph>
<glyph name="t" format="1">
  <advance width="846"/>
  <unicode hex="0074"/>
  <outline>
    <contour>
      <point x="525" y="-14" type="curve" smooth="yes"/>
      <point x="603" y="-14"/>
      <point x="646" y="-8"/>
      <point x="717" y="6" type="curve"/>
      <point x="717" y="141" type="line"/>
      <point x="717" y="141"/>
      <point x="604" y="125"/>
      <point x="534" y="125" type="curve" smooth="yes"/>
      <point x="409" y="125"/>
      <point x="358.0" y="177.58867397"/>
      <point x="358" y="338" type="curve" smooth="yes"/>
      <point x="358" y="966" type="line"/>
      <point x="717" y="966" type="line"/>
      <point x="717" y="1098" type="line"/>
      <point x="358" y="1098" type="line"/>
      <point x="358" y="1439" type="line"/>
      <point x="169" y="1367" type="line"/>
      <point x="169" y="1098" type="line"/>
      <point x="18" y="1098" type="line"/>
      <point x="18" y="966" type="line"/>
      <point x="169" y="966" type="line"/>
      <point x="169" y="349" type="line" smooth="yes"/>
      <point x="169" y="97"/>
      <point x="261" y="-14"/>
    </contour>
    <contour>
      <point x="440" y="549" type="move" name="center"/>
    </contour>
    <contour>
      <point x="440" y="0" type="move" name="bottom"/>
    </contour>
  </outline>
</glyph>
<glyph name="u" format="1">
  <advance width="1206"/>
  <unicode hex="0075"/>
  <outline>
    <contour>
      <point x="494" y="-22" type="curve" smooth="yes"/>
      <point x="647" y="-22"/>
      <point x="804" y="24"/>
      <point x="894" y="164" type="curve"/>
      <point x="894" y="0" type="line"/>
      <point x="1083" y="0" type="line"/>
      <point x="1083" y="1098" type="line"/>
      <point x="894" y="1098" type="line"/>
      <point x="894" y="304" type="line" smooth="yes"/>
      <point x="894" y="258"/>
      <point x="739" y="128"/>
      <point x="543" y="128" type="curve" smooth="yes"/>
      <point x="433" y="128"/>
      <point x="304" y="170"/>
      <point x="304" y="346" type="curve" smooth="yes"/>
      <point x="304" y="1098" type="line"/>
      <point x="115" y="1098" type="line"/>
      <point x="115" y="363" type="line" smooth="yes"/>
      <point x="115" y="103"/>
      <point x="286" y="-22"/>
    </contour>
    <contour>
      <point x="623" y="1098" type="move" name="bottom"/>
    </contour>
    <contour>
      <point x="623" y="0" type="move" name="top"/>
    </contour>
  </outline>
</glyph>
<glyph name="w" format="1">
  <advance width="1765"/>
  <unicode hex="0077"/>
  <outline>
    <contour>
      <point x="389" y="0" type="line"/>
      <point x="635" y="0" type="line"/>
      <point x="895" y="872" type="line"/>
      <point x="897" y="872" type="line"/>
      <point x="1135" y="0" type="line"/>
      <point x="1374" y="0" type="line"/>
      <point x="1700" y="1098" type="line"/>
      <point x="1497" y="1098" type="line"/>
      <point x="1297" y="357" type="line"/>
      <point x="1256" y="205" type="line"/>
      <point x="1216" y="356" type="line"/>
      <point x="1005" y="1098" type="line"/>
      <point x="769" y="1098" type="line"/>
      <point x="567" y="368" type="line"/>
      <point x="521" y="197" type="line"/>
      <point x="520" y="197" type="line"/>
      <point x="471" y="374" type="line"/>
      <point x="271" y="1098" type="line"/>
      <point x="65" y="1098" type="line"/>
    </contour>
  </outline>
</glyph>
<glyph name="x" format="1">
  <advance width="1224"/>
  <unicode hex="0078"/>
  <outline>
    <contour>
      <point x="52" y="0" type="line"/>
      <point x="276" y="0" type="line"/>
      <point x="560" y="355" type="line"/>
      <point x="617" y="423" type="line"/>
      <point x="673" y="353" type="line"/>
      <point x="959" y="0" type="line"/>
      <point x="1176" y="0" type="line"/>
      <point x="723" y="544" type="line"/>
      <point x="1180" y="1098" type="line"/>
      <point x="953" y="1098" type="line"/>
      <point x="672" y="746" type="line"/>
      <point x="612" y="675" type="line"/>
      <point x="544" y="756" type="line"/>
      <point x="271" y="1098" type="line"/>
      <point x="48" y="1098" type="line"/>
      <point x="505" y="546" type="line"/>
    </contour>
  </outline>
</glyph>
<glyph name="braceleft" format="1">
  <advance width="1069"/>
  <unicode hex="007B"/>
  <outline>
    <contour>
      <point x="868" y="-153" type="curve" smooth="yes"/>
      <point x="961" y="-153" type="line"/>
      <point x="961" y="-11" type="line"/>
      <point x="794" y="-11" type="line" smooth="yes"/>
      <point x="661" y="-11"/>
      <point x="647" y="30"/>
      <point x="647" y="141" type="curve" smooth="yes"/>
      <point x="647" y="336" type="line" smooth="yes"/>
      <point x="647" y="574"/>
      <point x="562" y="696"/>
      <point x="393" y="749" type="curve"/>
      <point x="393" y="757" type="line"/>
      <point x="562" y="810"/>
      <point x="647" y="932"/>
      <point x="647" y="1170" type="curve" smooth="yes"/>
      <point x="647" y="1355" type="line" smooth="yes"/>
      <point x="647" y="1466"/>
      <point x="661" y="1518"/>
      <point x="794" y="1518" type="curve" smooth="yes"/>
      <point x="961" y="1518" type="line"/>
      <point x="961" y="1659" type="line"/>
      <point x="868" y="1659" type="line" smooth="yes"/>
      <point x="596" y="1659"/>
      <point x="458" y="1620"/>
      <point x="458" y="1339" type="curve" smooth="yes"/>
      <point x="458" y="1163" type="line" smooth="yes"/>
      <point x="458" y="941"/>
      <point x="368" y="839"/>
      <point x="129" y="839" type="curve"/>
      <point x="129" y="667" type="line"/>
      <point x="368" y="667"/>
      <point x="458" y="565"/>
      <point x="458" y="343" type="curve" smooth="yes"/>
      <point x="458" y="167" type="line" smooth="yes"/>
      <point x="458" y="-114"/>
      <point x="596" y="-153"/>
    </contour>
  </outline>
</glyph>
<glyph name="bar" format="1">
  <advance width="1137"/>
  <unicode hex="007C"/>
  <outline>
    <contour>
      <point x="514" y="-352" type="line"/>
      <point x="703" y="-352" type="line"/>
      <point x="703" y="1575" type="line"/>
      <point x="514" y="1575" type="line"/>
    </contour>
  </outline>
</glyph>
<glyph name="braceright" format="1">
  <advance width="1069"/>
  <unicode hex="007D"/>
  <outline>
    <contour>
      <point x="129" y="-153" type="line"/>
      <point x="222" y="-153" type="line" smooth="yes"/>
      <point x="494" y="-153"/>
      <point x="632" y="-114"/>
      <point x="632" y="167" type="curve" smooth="yes"/>
      <point x="632" y="343" type="line" smooth="yes"/>
      <point x="632" y="565"/>
      <point x="722" y="667"/>
      <point x="961" y="667" type="curve"/>
      <point x="961" y="839" type="line"/>
      <point x="722" y="839"/>
      <point x="632" y="941"/>
      <point x="632" y="1163" type="curve" smooth="yes"/>
      <point x="632" y="1339" type="line" smooth="yes"/>
      <point x="632" y="1620"/>
      <point x="494" y="1658.81"/>
      <point x="222" y="1658.81" type="curve" smooth="yes"/>
      <point x="129" y="1658.81" type="line"/>
      <point x="129" y="1517" type="line"/>
      <point x="296" y="1517" type="line" smooth="yes"/>
      <point x="429" y="1517"/>
      <point x="443" y="1476"/>
      <point x="443" y="1365" type="curve" smooth="yes"/>
      <point x="443" y="1169.81" type="line" smooth="yes"/>
      <point x="443" y="931.812"/>
      <point x="528" y="810"/>
      <point x="697" y="757" type="curve"/>
      <point x="697" y="749" type="line"/>
      <point x="528" y="696"/>
      <point x="443" y="574"/>
      <point x="443" y="336" type="curve" smooth="yes"/>
      <point x="443" y="151" type="line" smooth="yes"/>
      <point x="443" y="40"/>
      <point x="429" y="-12"/>
      <point x="296" y="-12" type="curve" smooth="yes"/>
      <point x="129" y="-12" type="line"/>
    </contour>
  </outline>
</glyph>
<glyph name="brokenbar" format="1">
  <advance width="455"/>
  <unicode hex="00A6"/>
  <outline>
    <contour>
      <point x="166" y="-358" type="line"/>
      <point x="307" y="-358" type="line"/>
      <point x="307" y="358" type="line"/>
      <point x="166" y="358" type="line"/>
    </contour>
    <contour>
      <point x="166" y="665" type="line"/>
      <point x="307" y="665" type="line"/>
      <point x="307" y="1379" type="line"/>
      <point x="166" y="1379" type="line"/>
    </contour>
  </outline>
</glyph>
<glyph name="section" format="1">
  <advance width="1215"/>
  <unicode hex="00A7"/>
  <outline>
    <contour>
      <point x="639" y="-217" type="curve" smooth="yes"/>
      <point x="957" y="-213"/>
      <point x="1084" y="-97"/>
      <point x="1084" y="109" type="curve" smooth="yes"/>
      <point x="1084" y="240"/>
      <point x="1044" y="320"/>
      <point x="949" y="374" type="curve"/>
      <point x="1043" y="427"/>
      <point x="1084" y="513"/>
      <point x="1084" y="630" type="curve" smooth="yes"/>
      <point x="1084" y="838"/>
      <point x="987" y="900"/>
      <point x="717" y="967" type="curve" smooth="yes"/>
      <point x="460" y="1031"/>
      <point x="400" y="1057"/>
      <point x="400" y="1160" type="curve" smooth="yes"/>
      <point x="400" y="1287"/>
      <point x="513" y="1306"/>
      <point x="620" y="1306" type="curve" smooth="yes"/>
      <point x="772" y="1306"/>
      <point x="957" y="1241"/>
      <point x="992" y="1226" type="curve"/>
      <point x="1004" y="1379" type="line"/>
      <point x="909" y="1423"/>
      <point x="783" y="1460"/>
      <point x="603" y="1460" type="curve" smooth="yes"/>
      <point x="333" y="1460"/>
      <point x="215" y="1347"/>
      <point x="215" y="1152" type="curve" smooth="yes"/>
      <point x="215" y="1021"/>
      <point x="293" y="948"/>
      <point x="404" y="901" type="curve"/>
      <point x="274" y="856"/>
      <point x="215" y="759"/>
      <point x="215" y="621" type="curve" smooth="yes"/>
      <point x="215" y="406"/>
      <point x="425" y="357"/>
      <point x="644" y="311" type="curve" smooth="yes"/>
      <point x="880" y="261"/>
      <point x="906" y="201"/>
      <point x="906" y="112" type="curve" smooth="yes"/>
      <point x="906" y="-16"/>
      <point x="811" y="-63"/>
      <point x="630" y="-63" type="curve" smooth="yes"/>
      <point x="452" y="-63"/>
      <point x="325" y="-13"/>
      <point x="248" y="26" type="curve"/>
      <point x="219" y="-120" type="line"/>
      <point x="329" y="-186"/>
      <point x="495" y="-217"/>
    </contour>
    <contour>
      <point x="763" y="441" type="line"/>
      <point x="750" y="444"/>
      <point x="736" y="447"/>
      <point x="722" y="450" type="curve" smooth="yes"/>
      <point x="466" y="502"/>
      <point x="392" y="526"/>
      <point x="384" y="629" type="curve" smooth="yes"/>
      <point x="375" y="741"/>
      <point x="448" y="824"/>
      <point x="604" y="842" type="curve"/>
      <point x="618" y="839"/>
      <point x="631" y="836"/>
      <point x="644" y="833" type="curve" smooth="yes"/>
      <point x="880" y="783"/>
      <point x="906" y="732"/>
      <point x="906" y="643" type="curve" smooth="yes"/>
      <point x="906" y="541"/>
      <point x="852" y="478"/>
      <point x="765" y="441" type="curve"/>
    </contour>
  </outline>
</glyph>
<glyph name="logicalnot" format="1">
  <advance width="1586"/>
  <unicode hex="00AC"/>
  <outline>
    <contour>
      <point x="1145" y="290" type="line"/>
      <point x="1271" y="290" type="line"/>
      <point x="1271" y="826" type="line"/>
      <point x="233" y="826" type="line"/>
      <point x="233" y="701" type="line"/>
      <point x="1145" y="701" type="line"/>
    </contour>
  </outline>
</glyph>
<glyph name="degree" format="1">
  <advance width="1010"/>
  <unicode hex="00B0"/>
  <outline>
    <contour>
      <point x="506" y="900" type="curve" smooth="yes"/>
      <point x="364" y="900"/>
      <point x="275" y="1004"/>
      <point x="275" y="1136" type="curve" smooth="yes"/>
      <point x="275" y="1263"/>
      <point x="361" y="1372"/>
      <point x="506" y="1372" type="curve" smooth="yes"/>
      <point x="649" y="1372"/>
      <point x="737" y="1263"/>
      <point x="737" y="1136" type="curve" smooth="yes"/>
      <point x="737" y="1007"/>
      <point x="650" y="900"/>
    </contour>
    <contour>
      <point x="506" y="808" type="curve" smooth="yes"/>
      <point x="698" y="808"/>
      <point x="844" y="952"/>
      <point x="844" y="1136" type="curve" smooth="yes"/>
      <point x="844" y="1318"/>
      <point x="698" y="1463"/>
      <point x="506" y="1463" type="curve" smooth="yes"/>
      <point x="317" y="1463"/>
      <point x="169" y="1319"/>
      <point x="169" y="1136" type="curve" smooth="yes"/>
      <point x="169" y="953"/>
      <point x="315" y="808"/>
    </contour>
  </outline>
</glyph>
<glyph name="paragraph" format="1">
  <advance width="1336"/>
  <unicode hex="00B6"/>
  <outline>
    <contour>
      <point x="703" y="-277" type="line"/>
      <point x="840" y="-277" type="line"/>
      <point x="840" y="1462" type="line"/>
      <point x="1025" y="1462" type="line"/>
      <point x="1025" y="-277" type="line"/>
      <point x="1162" y="-277" type="line"/>
      <point x="1162" y="1575" type="line"/>
      <point x="721" y="1575" type="line" smooth="yes"/>
      <point x="330" y="1575"/>
      <point x="165" y="1480"/>
      <point x="165" y="1227" type="curve" smooth="yes"/>
      <point x="165" y="966"/>
      <point x="413" y="870"/>
      <point x="703" y="873" type="curve"/>
    </contour>
  </outline>
</glyph>
<glyph name="cedilla" format="1">
  <advance width="994"/>
  <unicode hex="00B8"/>
  <outline>
    <contour>
      <point x="428" y="-529" type="curve" smooth="yes"/>
      <point x="636" y="-529"/>
      <point x="708" y="-421"/>
      <point x="708" y="-296" type="curve" smooth="yes"/>
      <point x="708" y="-193"/>
      <point x="630" y="-127"/>
      <point x="469" y="-122" type="curve"/>
      <point x="512" y="2" type="line"/>
      <point x="431" y="2" type="line"/>
      <point x="363" y="-195" type="line"/>
      <point x="381" y="-198"/>
      <point x="397" y="-202"/>
      <point x="413" y="-207" type="curve"/>
      <point x="438" y="-200"/>
      <point x="460" y="-197"/>
      <point x="480" y="-197" type="curve" smooth="yes"/>
      <point x="557" y="-197"/>
      <point x="596" y="-245"/>
      <point x="596" y="-298" type="curve" smooth="yes"/>
      <point x="596" y="-404"/>
      <point x="516" y="-441"/>
      <point x="436" y="-441" type="curve" smooth="yes"/>
      <point x="375" y="-441"/>
      <point x="314" y="-420"/>
      <point x="290" y="-391" type="curve"/>
      <point x="290" y="-391"/>
      <point x="259" y="-391"/>
      <point x="259" y="-391" type="curve"/>
      <point x="225" y="-483" type="line"/>
      <point x="279" y="-509"/>
      <point x="374" y="-529"/>
    </contour>
    <contour>
      <point x="476" y="0" type="move" name="_bottom"/>
    </contour>
  </outline>
</glyph>
<glyph name="ordmasculine" format="1">
  <advance width="990"/>
  <unicode hex="00BA"/>
  <outline>
    <contour>
      <point x="507" y="825" type="curve" smooth="yes"/>
      <point x="362" y="825"/>
      <point x="295" y="903"/>
      <point x="295" y="1105" type="curve" smooth="yes"/>
      <point x="295" y="1339"/>
      <point x="390" y="1393"/>
      <point x="507" y="1393" type="curve" smooth="yes"/>
      <point x="647" y="1393"/>
      <point x="718" y="1309"/>
      <point x="718" y="1105" type="curve" smooth="yes"/>
      <point x="718" y="920"/>
      <point x="648" y="825"/>
    </contour>
    <contour>
      <point x="507" y="687" type="curve" smooth="yes"/>
      <point x="740" y="687"/>
      <point x="880" y="834"/>
      <point x="880" y="1105" type="curve" smooth="yes"/>
      <point x="880" y="1380"/>
      <point x="740" y="1521"/>
      <point x="507" y="1521" type="curve" smooth="yes"/>
      <point x="276" y="1521"/>
      <point x="133" y="1380"/>
      <point x="133" y="1105" type="curve" smooth="yes"/>
      <point x="133" y="834"/>
      <point x="273" y="687"/>
    </contour>
  </outline>
</glyph>
<glyph name="guillemotright" format="1">
  <advance width="999"/>
  <unicode hex="00BB"/>
  <outline>
    <contour>
      <point x="27" y="172" type="line"/>
      <point x="27" y="172"/>
      <point x="417" y="491"/>
      <point x="527" y="581" type="curve"/>
      <point x="527" y="689" type="line"/>
      <point x="418" y="770"/>
      <point x="27" y="1084"/>
      <point x="27" y="1084" type="curve"/>
      <point x="27" y="885" type="line"/>
      <point x="27" y="885"/>
      <point x="364" y="638"/>
      <point x="364" y="638" type="curve"/>
      <point x="27" y="386" type="line"/>
    </contour>
    <contour>
      <point x="460" y="172" type="line"/>
      <point x="460" y="172"/>
      <point x="848" y="491"/>
      <point x="958" y="581" type="curve"/>
      <point x="958" y="689" type="line"/>
      <point x="849" y="770"/>
      <point x="460" y="1084"/>
      <point x="460" y="1084" type="curve"/>
      <point x="460" y="885" type="line"/>
      <point x="460" y="885"/>
      <point x="795" y="638"/>
      <point x="795" y="638" type="curve"/>
      <point x="460" y="386" type="line"/>
    </contour>
  </outline>
</glyph>
<glyph name="onehalf" format="1">
  <advance width="1562.0"/>
  <unicode hex="00BD"/>
  <outline>
    <contour>
      <point x="277.0" y="0.0" type="line"/>
      <point x="412.0" y="0.0" type="line"/>
      <point x="1297.0" y="1521.0" type="line"/>
      <point x="1161.0" y="1521.0" type="line"/>
    </contour>
    <component base="two.superior" xOffset="886" yOffset="-589"/>
    <component base="one.superior" xOffset="-80"/>
  </outline>
</glyph>
<glyph name="AE" format="1">
  <advance width="1979"/>
  <unicode hex="00C6"/>
  <outline>
    <contour>
      <point x="21" y="0" type="line"/>
      <point x="224" y="0" type="line"/>
      <point x="453" y="375" type="line"/>
      <point x="1062" y="375" type="line"/>
      <point x="1062" y="0" type="line"/>
      <point x="1855" y="0" type="line"/>
      <point x="1855" y="141" type="line"/>
      <point x="1251" y="141" type="line"/>
      <point x="1251" y="746" type="line"/>
      <point x="1771" y="746" type="line"/>
      <point x="1771" y="887" type="line"/>
      <point x="1251" y="887" type="line"/>
      <point x="1251" y="1434" type="line"/>
      <point x="1856" y="1434" type="line"/>
      <point x="1856" y="1575" type="line"/>
      <point x="972" y="1575" type="line"/>
    </contour>
    <contour>
      <point x="534" y="516" type="line"/>
      <point x="1060" y="1418" type="line"/>
      <point x="1062" y="1418" type="line"/>
      <point x="1062" y="516" type="line"/>
    </contour>
    <contour>
      <point x="922" y="1575" type="move" name="top"/>
    </contour>
  </outline>
</glyph>
<glyph name="germandbls" format="1">
  <advance width="1308"/>
  <unicode hex="00DF"/>
  <outline>
    <contour>
      <point x="694" y="-6" type="curve" smooth="yes"/>
      <point x="1109.14501129" y="-6.0"/>
      <point x="1250.0" y="224.933469346"/>
      <point x="1250" y="467" type="curve" smooth="yes"/>
      <point x="1250" y="658"/>
      <point x="1178" y="865"/>
      <point x="867" y="961" type="curve"/>
      <point x="867" y="963" type="line"/>
      <point x="1008" y="986"/>
      <point x="1098" y="1106"/>
      <point x="1098" y="1230" type="curve" smooth="yes"/>
      <point x="1098" y="1439"/>
      <point x="920" y="1599"/>
      <point x="643" y="1599" type="curve" smooth="yes"/>
      <point x="284" y="1599"/>
      <point x="125" y="1420"/>
      <point x="125" y="1099" type="curve" smooth="yes"/>
      <point x="125" y="0" type="line"/>
      <point x="314" y="0" type="line"/>
      <point x="314" y="1124" type="line" smooth="yes"/>
      <point x="314" y="1385"/>
      <point x="462" y="1458"/>
      <point x="625" y="1458" type="curve" smooth="yes"/>
      <point x="819" y="1458"/>
      <point x="909" y="1342"/>
      <point x="909" y="1230" type="curve" smooth="yes"/>
      <point x="909" y="1110"/>
      <point x="854" y="1012"/>
      <point x="617" y="1012" type="curve"/>
      <point x="617" y="888" type="line"/>
      <point x="967" y="888"/>
      <point x="1053" y="643"/>
      <point x="1053" y="483" type="curve" smooth="yes"/>
      <point x="1053" y="323"/>
      <point x="1016" y="131"/>
      <point x="656" y="131" type="curve" smooth="yes"/>
      <point x="636" y="131"/>
      <point x="534" y="138"/>
      <point x="509" y="140" type="curve"/>
      <point x="509" y="-1" type="line"/>
      <point x="554" y="-2"/>
      <point x="674" y="-6"/>
    </contour>
  </outline>
</glyph>
<glyph name="divide" format="1">
  <advance width="1586"/>
  <unicode hex="00F7"/>
  <outline>
    <contour>
      <point x="792" y="0" type="curve" smooth="yes"/>
      <point x="910" y="0"/>
      <point x="1006" y="96"/>
      <point x="1006" y="214" type="curve" smooth="yes"/>
      <point x="1006" y="331"/>
      <point x="910" y="427"/>
      <point x="792" y="427" type="curve" smooth="yes"/>
      <point x="674" y="427"/>
      <point x="578" y="331"/>
      <point x="578" y="214" type="curve" smooth="yes"/>
      <point x="578" y="96"/>
      <point x="674" y="0"/>
    </contour>
    <contour>
      <point x="161" y="525" type="line"/>
      <point x="1425" y="525" type="line"/>
      <point x="1425" y="775" type="line"/>
      <point x="161" y="775" type="line"/>
    </contour>
    <contour>
      <point x="792" y="876" type="curve" smooth="yes"/>
      <point x="910" y="876"/>
      <point x="1006" y="972"/>
      <point x="1006" y="1090" type="curve" smooth="yes"/>
      <point x="1006" y="1207"/>
      <point x="910" y="1303"/>
      <point x="792" y="1303" type="curve" smooth="yes"/>
      <point x="674" y="1303"/>
      <point x="578" y="1207"/>
      <point x="578" y="1090" type="curve" smooth="yes"/>
      <point x="578" y="972"/>
      <point x="674" y="876"/>
    </contour>
  </outline>
</glyph>
<glyph name="oslash" format="1">
  <advance width="1257"/>
  <unicode hex="00F8"/>
  <outline>
    <contour>
      <point x="626" y="-22" type="curve" smooth="yes"/>
      <point x="899" y="-22"/>
      <point x="1161" y="140"/>
      <point x="1161" y="553" type="curve" smooth="yes"/>
      <point x="1161" y="723"/>
      <point x="1117" y="850"/>
      <point x="1046" y="941" type="curve"/>
      <point x="1184" y="1098" type="line"/>
      <point x="1043" y="1098" type="line"/>
      <point x="971" y="1016" type="line"/>
      <point x="874" y="1093"/>
      <point x="751" y="1126"/>
      <point x="626" y="1126" type="curve" smooth="yes"/>
      <point x="370" y="1126"/>
      <point x="96" y="970"/>
      <point x="96" y="554" type="curve" smooth="yes"/>
      <point x="96" y="379"/>
      <point x="143" y="249"/>
      <point x="217" y="157" type="curve"/>
      <point x="79" y="0" type="line"/>
      <point x="220" y="0" type="line"/>
      <point x="293" y="83" type="line"/>
      <point x="387" y="10"/>
      <point x="506" y="-22"/>
    </contour>
    <contour>
      <point x="341" y="299" type="line"/>
      <point x="305" y="365"/>
      <point x="285" y="450"/>
      <point x="285" y="552" type="curve" smooth="yes"/>
      <point x="285" y="821"/>
      <point x="431" y="970"/>
      <point x="626" y="970" type="curve" smooth="yes"/>
      <point x="721" y="970"/>
      <point x="799" y="942"/>
      <point x="858" y="887" type="curve"/>
    </contour>
    <contour>
      <point x="629" y="131" type="curve" smooth="yes"/>
      <point x="541" y="131"/>
      <point x="465" y="159"/>
      <point x="407" y="213" type="curve"/>
      <point x="922" y="800" type="line"/>
      <point x="955" y="735"/>
      <point x="972" y="652"/>
      <point x="972" y="551" type="curve" smooth="yes"/>
      <point x="972" y="298"/>
      <point x="858" y="131"/>
    </contour>
    <contour>
      <point x="617" y="1106" type="move" name="top"/>
    </contour>
  </outline>
</glyph>
<glyph name="dotlessi" format="1">
  <advance width="487"/>
  <unicode hex="0131"/>
  <outline>
    <contour>
      <point x="141" y="0" type="line"/>
      <point x="339" y="0" type="line"/>
      <point x="339" y="1098" type="line"/>
      <point x="141" y="1098" type="line"/>
    </contour>
    <contour>
      <point x="243" y="1098" type="move" name="top"/>
    </contour>
    <contour>
      <point x="438" y="10" type="move" name="ogonek"/>
    </contour>
  </outline>
</glyph>
<glyph name="Lslash" format="1">
  <advance width="1187"/>
  <unicode hex="0141"/>
  <outline>
    <contour>
      <point x="243" y="0" type="line"/>
      <point x="1145" y="0" type="line"/>
      <point x="1145" y="141" type="line"/>
      <point x="432" y="141" type="line"/>
      <point x="432" y="698" type="line"/>
      <point x="769" y="941" type="line"/>
      <point x="769" y="1099" type="line"/>
      <point x="432" y="856" type="line"/>
      <point x="432" y="1575" type="line"/>
      <point x="243" y="1575" type="line"/>
      <point x="243" y="719" type="line"/>
      <point x="81" y="602" type="line"/>
      <point x="81" y="444" type="line"/>
      <point x="243" y="561" type="line"/>
    </contour>
  </outline>
</glyph>
<glyph name="lslash" format="1">
  <advance width="604"/>
  <unicode hex="0142"/>
  <outline>
    <contour>
      <point x="480" y="-10" type="curve" smooth="yes"/>
      <point x="567" y="-10" type="line"/>
      <point x="567" y="141" type="line"/>
      <point x="342" y="141"/>
      <point x="332" y="171"/>
      <point x="332" y="331" type="curve" smooth="yes"/>
      <point x="332" y="810" type="line"/>
      <point x="508" y="947" type="line"/>
      <point x="508" y="1099" type="line"/>
      <point x="332" y="962" type="line"/>
      <point x="332" y="1521" type="line"/>
      <point x="143" y="1521" type="line"/>
      <point x="143" y="815" type="line"/>
      <point x="30" y="727" type="line"/>
      <point x="30" y="575" type="line"/>
      <point x="143" y="663" type="line"/>
      <point x="143" y="333" type="line" smooth="yes"/>
      <point x="143" y="136"/>
      <point x="150" y="-10"/>
    </contour>
  </outline>
</glyph>
<glyph name="oe" format="1">
  <advance width="1978"/>
  <unicode hex="0153"/>
  <outline>
    <contour>
      <point x="576" y="-29" type="curve" smooth="yes"/>
      <point x="797" y="-29"/>
      <point x="933" y="72"/>
      <point x="1018" y="201" type="curve"/>
      <point x="1095" y="72"/>
      <point x="1278" y="-25"/>
      <point x="1462" y="-25" type="curve" smooth="yes"/>
      <point x="1695" y="-25"/>
      <point x="1797" y="48"/>
      <point x="1883" y="107" type="curve"/>
      <point x="1837" y="221" type="line"/>
      <point x="1775" y="221" type="line"/>
      <point x="1746" y="188"/>
      <point x="1681" y="125"/>
      <point x="1487" y="125" type="curve" smooth="yes"/>
      <point x="1218" y="125"/>
      <point x="1113" y="321"/>
      <point x="1115" y="500" type="curve"/>
      <point x="1891" y="500" type="line"/>
      <point x="1891" y="535" type="line" smooth="yes"/>
      <point x="1891" y="861"/>
      <point x="1738" y="1117"/>
      <point x="1407" y="1117" type="curve" smooth="yes"/>
      <point x="1196" y="1117"/>
      <point x="1069" y="970"/>
      <point x="1009" y="872" type="curve"/>
      <point x="956" y="1000"/>
      <point x="808" y="1124"/>
      <point x="582" y="1124" type="curve" smooth="yes"/>
      <point x="518" y="1124"/>
      <point x="51" y="1078"/>
      <point x="51" y="548" type="curve" smooth="yes"/>
      <point x="51" y="28"/>
      <point x="504" y="-29"/>
    </contour>
    <contour>
      <point x="580" y="126" type="curve" smooth="yes"/>
      <point x="439" y="126"/>
      <point x="237" y="212"/>
      <point x="237" y="546" type="curve" smooth="yes"/>
      <point x="237" y="882"/>
      <point x="462" y="973"/>
      <point x="573" y="973" type="curve" smooth="yes"/>
      <point x="765" y="973"/>
      <point x="919" y="896"/>
      <point x="919" y="545" type="curve" smooth="yes"/>
      <point x="919" y="223"/>
      <point x="729" y="126"/>
    </contour>
    <contour>
      <point x="1122" y="637" type="line"/>
      <point x="1141" y="755"/>
      <point x="1202" y="965"/>
      <point x="1443" y="965" type="curve" smooth="yes"/>
      <point x="1647" y="965"/>
      <point x="1713" y="774"/>
      <point x="1719" y="637" type="curve"/>
    </contour>
    <contour>
      <point x="990" y="1098" type="move" name="top"/>
    </contour>
  </outline>
</glyph>
<glyph name="circumflex" format="1">
  <advance width="893"/>
  <unicode hex="02C6"/>
  <outline>
    <contour>
      <point x="73" y="1239" type="line"/>
      <point x="231" y="1239" type="line"/>
      <point x="445" y="1490" type="line"/>
      <point x="664" y="1239" type="line"/>
      <point x="821" y="1239" type="line"/>
      <point x="515" y="1602" type="line"/>
      <point x="379" y="1602" type="line"/>
    </contour>
    <contour>
      <point x="447" y="1098" type="move" name="_top"/>
    </contour>
  </outline>
</glyph>
<glyph name="caron" format="1">
  <advance width="893"/>
  <unicode hex="02C7"/>
  <outline>
    <contour>
      <point x="379" y="1158" type="line"/>
      <point x="495" y="1158" type="line"/>
      <point x="821" y="1521" type="line"/>
      <point x="673" y="1521" type="line"/>
      <point x="439" y="1270" type="line"/>
      <point x="230" y="1521" type="line"/>
      <point x="73" y="1521" type="line"/>
    </contour>
    <contour>
      <point x="449" y="1662" type="move" name="_top"/>
    </contour>
  </outline>
</glyph>
<glyph name="dotaccent" format="1">
  <advance width="898"/>
  <unicode hex="02D9"/>
  <outline>
    <contour>
      <point x="461" y="1259" type="curve" smooth="yes"/>
      <point x="549" y="1259"/>
      <point x="619" y="1328"/>
      <point x="619" y="1417" type="curve" smooth="yes"/>
      <point x="619" y="1505"/>
      <point x="549" y="1575"/>
      <point x="461" y="1575" type="curve" smooth="yes"/>
      <point x="372" y="1575"/>
      <point x="302" y="1505"/>
      <point x="302" y="1417" type="curve" smooth="yes"/>
      <point x="302" y="1328"/>
      <point x="372" y="1259"/>
    </contour>
  </outline>
</glyph>
<glyph name="ogonek" format="1">
  <advance width="897"/>
  <unicode hex="02DB"/>
  <outline>
    <contour>
      <point x="520" y="-433" type="curve" smooth="yes"/>
      <point x="573" y="-433"/>
      <point x="635" y="-422"/>
      <point x="708" y="-398" type="curve"/>
      <point x="696" y="-282" type="line"/>
      <point x="652" y="-295"/>
      <point x="588" y="-310"/>
      <point x="553" y="-310" type="curve" smooth="yes"/>
      <point x="470" y="-310"/>
      <point x="436" y="-259"/>
      <point x="436" y="-189" type="curve" smooth="yes"/>
      <point x="436" y="-130"/>
      <point x="460" y="-58"/>
      <point x="502" y="6" type="curve"/>
      <point x="391" y="6" type="line"/>
      <point x="343" y="-50"/>
      <point x="299" y="-126"/>
      <point x="299" y="-220" type="curve" smooth="yes"/>
      <point x="299" y="-347"/>
      <point x="372" y="-433"/>
    </contour>
    <contour>
      <point x="708" y="10" type="move" name="_ogonek"/>
    </contour>
  </outline>
</glyph>
<glyph name="tilde" format="1">
  <advance width="893"/>
  <unicode hex="02DC"/>
  <outline>
    <contour>
      <point x="228" y="1245" type="line"/>
      <point x="231.221657481" y="1316.9503504"/>
      <point x="250.39681363" y="1356.0"/>
      <point x="294" y="1356" type="curve" smooth="yes"/>
      <point x="375" y="1356"/>
      <point x="493" y="1243"/>
      <point x="620" y="1243" type="curve" smooth="yes"/>
      <point x="739.104995697" y="1243.0"/>
      <point x="822.0" y="1313.50406943"/>
      <point x="822" y="1492" type="curve"/>
      <point x="676" y="1492" type="line"/>
      <point x="671.751659831" y="1419.77821712"/>
      <point x="653.320817537" y="1376.0"/>
      <point x="602" y="1376" type="curve" smooth="yes"/>
      <point x="535" y="1376"/>
      <point x="429" y="1491"/>
      <point x="278" y="1491" type="curve" smooth="yes"/>
      <point x="164" y="1491"/>
      <point x="82" y="1409"/>
      <point x="82" y="1245" type="curve"/>
    </contour>
    <contour>
      <point x="447" y="1098" type="move" name="_top"/>
    </contour>
  </outline>
</glyph>
<glyph name="Delta" format="1">
  <advance width="1162"/>
  <unicode hex="0394"/>
  <outline>
    <contour>
      <point x="254" y="118" type="line"/>
      <point x="257" y="118"/>
      <point x="567" y="1247"/>
      <point x="584" y="1329" type="curve"/>
      <point x="590" y="1329" type="line"/>
      <point x="901" y="118" type="line"/>
    </contour>
    <contour>
      <point x="53" y="0" type="line"/>
      <point x="1108" y="0" type="line"/>
      <point x="1108" y="81" type="line"/>
      <point x="702" y="1457" type="line"/>
      <point x="471" y="1457" type="line"/>
      <point x="53" y="77" type="line"/>
    </contour>
  </outline>
</glyph>
<glyph name="quoteleft" format="1">
  <advance width="563"/>
  <unicode hex="2018"/>
  <outline>
    <contour>
      <point x="309" y="1078" type="line"/>
      <point x="434" y="1078" type="line"/>
      <point x="331" y="1575" type="line"/>
      <point x="129" y="1575" type="line"/>
    </contour>
  </outline>
</glyph>
<glyph name="quotesinglbase" format="1">
  <advance width="563"/>
  <unicode hex="201A"/>
  <outline>
    <contour>
      <point x="96" y="-259" type="line"/>
      <point x="263" y="-259" type="line"/>
      <point x="263" y="-259"/>
      <point x="475" y="297"/>
      <point x="461" y="258" type="curve"/>
      <point x="201" y="258" type="line"/>
    </contour>
  </outline>
</glyph>
<glyph name="quotedblleft" format="1">
  <advance width="942"/>
  <unicode hex="201C"/>
  <outline>
    <contour>
      <point x="309" y="1078" type="line"/>
      <point x="434" y="1078" type="line"/>
      <point x="331" y="1575" type="line"/>
      <point x="129" y="1575" type="line"/>
    </contour>
    <contour>
      <point x="652" y="1078" type="line"/>
      <point x="776" y="1078" type="line"/>
      <point x="674" y="1575" type="line"/>
      <point x="472" y="1575" type="line"/>
    </contour>
  </outline>
</glyph>
<glyph name="quotedblright" format="1">
  <advance width="943"/>
  <unicode hex="201D"/>
  <outline>
    <contour>
      <point x="97" y="1058" type="line"/>
      <point x="230" y="1058" type="line"/>
      <point x="405" y="1575" type="line"/>
      <point x="202" y="1575" type="line"/>
    </contour>
    <contour>
      <point x="435" y="1058" type="line"/>
      <point x="568" y="1058" type="line"/>
      <point x="743" y="1575" type="line"/>
      <point x="540" y="1575" type="line"/>
    </contour>
  </outline>
</glyph>
<glyph name="guilsinglleft" format="1">
  <advance width="796"/>
  <unicode hex="2039"/>
  <outline>
    <contour>
      <point x="699" y="172" type="curve"/>
      <point x="699" y="371" type="line"/>
      <point x="699" y="371"/>
      <point x="320" y="618"/>
      <point x="320" y="618" type="curve"/>
      <point x="699" y="870" type="line"/>
      <point x="699" y="1084" type="line"/>
      <point x="699" y="1084"/>
      <point x="267" y="765"/>
      <point x="157" y="675" type="curve"/>
      <point x="157" y="567" type="line"/>
      <point x="266" y="486"/>
      <point x="699" y="172"/>
    </contour>
  </outline>
</glyph>
<glyph name="afii61289" format="1">
  <advance width="898"/>
  <unicode hex="2113"/>
  <outline>
    <contour>
      <point x="514" y="-4" type="curve" smooth="yes"/>
      <point x="655" y="-4"/>
      <point x="780" y="72"/>
      <point x="866" y="252" type="curve"/>
      <point x="784" y="336" type="line"/>
      <point x="735" y="250"/>
      <point x="657" y="158"/>
      <point x="557" y="158" type="curve" smooth="yes"/>
      <point x="461" y="158"/>
      <point x="386" y="240"/>
      <point x="384" y="431" type="curve"/>
      <point x="384" y="527" type="line"/>
      <point x="597" y="761"/>
      <point x="737" y="999"/>
      <point x="737" y="1241" type="curve" smooth="yes"/>
      <point x="737" y="1437"/>
      <point x="662" y="1582"/>
      <point x="502" y="1582" type="curve" smooth="yes"/>
      <point x="343" y="1582"/>
      <point x="193" y="1444"/>
      <point x="193" y="1092" type="curve" smooth="yes"/>
      <point x="193" y="550" type="line"/>
      <point x="150" y="501"/>
      <point x="100" y="460"/>
      <point x="45" y="409" type="curve"/>
      <point x="96" y="297" type="line"/>
      <point x="129" y="326"/>
      <point x="164" y="357"/>
      <point x="195" y="382" type="curve"/>
      <point x="195" y="358" type="line"/>
      <point x="203" y="164"/>
      <point x="288" y="-4"/>
    </contour>
    <contour>
      <point x="384" y="724" type="curve"/>
      <point x="384" y="1079" type="line" smooth="yes"/>
      <point x="384" y="1350"/>
      <point x="449" y="1431"/>
      <point x="510" y="1431" type="curve" smooth="yes"/>
      <point x="588" y="1431"/>
      <point x="616" y="1364"/>
      <point x="616" y="1249" type="curve" smooth="yes"/>
      <point x="616" y="1081"/>
      <point x="517" y="895"/>
    </contour>
  </outline>
</glyph>
<glyph name="estimated" format="1">
  <advance width="1786"/>
  <unicode hex="212E"/>
  <outline>
    <contour>
      <point x="890" y="-10" type="curve" smooth="yes"/>
      <point x="1156" y="-10"/>
      <point x="1397" y="102"/>
      <point x="1541" y="276" type="curve"/>
      <point x="1424" y="276" type="line"/>
      <point x="1294" y="127"/>
      <point x="1105" y="31"/>
      <point x="892" y="31" type="curve" smooth="yes"/>
      <point x="696" y="31"/>
      <point x="517" y="117"/>
      <point x="388" y="250" type="curve"/>
      <point x="378" y="262"/>
      <point x="373" y="279"/>
      <point x="373" y="297" type="curve" smooth="yes"/>
      <point x="373" y="699" type="line" smooth="yes"/>
      <point x="373" y="706"/>
      <point x="376" y="708"/>
      <point x="382" y="708" type="curve" smooth="yes"/>
      <point x="1715" y="708" type="line"/>
      <point x="1715" y="726" type="line" smooth="yes"/>
      <point x="1715" y="1137"/>
      <point x="1347" y="1467"/>
      <point x="890" y="1467" type="curve" smooth="yes"/>
      <point x="437" y="1467"/>
      <point x="70" y="1137"/>
      <point x="70" y="726" type="curve" smooth="yes"/>
      <point x="70" y="319"/>
      <point x="437" y="-10"/>
    </contour>
    <contour>
      <point x="382" y="747" type="line"/>
      <point x="376" y="747"/>
      <point x="373" y="755"/>
      <point x="373" y="761" type="curve" smooth="yes"/>
      <point x="373" y="1155" type="line" smooth="yes"/>
      <point x="373" y="1176"/>
      <point x="378" y="1194"/>
      <point x="390" y="1206" type="curve" smooth="yes"/>
      <point x="519" y="1336"/>
      <point x="698" y="1422"/>
      <point x="892" y="1422" type="curve" smooth="yes"/>
      <point x="1089" y="1422"/>
      <point x="1264" y="1338"/>
      <point x="1394" y="1212" type="curve" smooth="yes"/>
      <point x="1406" y="1200"/>
      <point x="1412" y="1182"/>
      <point x="1412" y="1165" type="curve" smooth="yes"/>
      <point x="1412" y="761" type="line" smooth="yes"/>
      <point x="1412" y="755"/>
      <point x="1410" y="747"/>
      <point x="1404" y="747" type="curve" smooth="yes"/>
    </contour>
  </outline>
</glyph>
<glyph name="minus" format="1">
  <advance width="1228"/>
  <unicode hex="2212"/>
  <outline>
    <contour>
      <point x="96" y="437" type="line"/>
      <point x="1133" y="437" type="line"/>
      <point x="1133" y="597" type="line"/>
      <point x="96" y="597" type="line"/>
    </contour>
  </outline>
</glyph>
<glyph name="radical" format="1">
  <advance width="1290"/>
  <unicode hex="221A"/>
  <outline>
    <contour>
      <point x="584.0" y="-106.0" type="line"/>
      <point x="777.0" y="-106.0" type="line"/>
      <point x="1188" y="1575" type="line"/>
      <point x="1034" y="1575" type="line"/>
      <point x="937" y="1177"/>
      <point x="830" y="678"/>
      <point x="733" y="281" type="curve"/>
      <point x="675" y="38" type="line"/>
      <point x="675" y="38"/>
      <point x="628" y="213"/>
      <point x="607" y="272" type="curve" smooth="yes"/>
      <point x="427.0" y="866.0" type="line"/>
      <point x="84.0" y="823.0" type="line"/>
      <point x="96" y="692" type="line"/>
      <point x="318" y="721" type="line"/>
    </contour>
  </outline>
</glyph>
<glyph name="infinity" format="1">
  <advance width="1592"/>
  <unicode hex="221E"/>
  <outline>
    <contour>
      <point x="1174" y="216" type="curve" smooth="yes"/>
      <point x="1368" y="216"/>
      <point x="1518" y="377"/>
      <point x="1518" y="587" type="curve" smooth="yes"/>
      <point x="1518" y="807"/>
      <point x="1383" y="954"/>
      <point x="1179" y="955" type="curve" smooth="yes"/>
      <point x="1022" y="955"/>
      <point x="896" y="819"/>
      <point x="801" y="683" type="curve"/>
      <point x="704" y="834"/>
      <point x="576" y="961"/>
      <point x="424" y="961" type="curve" smooth="yes"/>
      <point x="224" y="961"/>
      <point x="78" y="798"/>
      <point x="78" y="594" type="curve" smooth="yes"/>
      <point x="78" y="374"/>
      <point x="220" y="222"/>
      <point x="420" y="222" type="curve" smooth="yes"/>
      <point x="572" y="222"/>
      <point x="698" y="350"/>
      <point x="799" y="496" type="curve"/>
      <point x="907" y="331"/>
      <point x="1034" y="216"/>
    </contour>
    <contour>
      <point x="423" y="358" type="curve" smooth="yes"/>
      <point x="313" y="358"/>
      <point x="218" y="454"/>
      <point x="218" y="591" type="curve" smooth="yes"/>
      <point x="218" y="726"/>
      <point x="309" y="828"/>
      <point x="419" y="828" type="curve" smooth="yes"/>
      <point x="523" y="828"/>
      <point x="663" y="711"/>
      <point x="739" y="589" type="curve"/>
      <point x="664" y="474"/>
      <point x="522" y="358"/>
    </contour>
    <contour>
      <point x="1188" y="351" type="curve" smooth="yes"/>
      <point x="1094" y="351"/>
      <point x="948" y="455"/>
      <point x="859" y="587" type="curve"/>
      <point x="929" y="695"/>
      <point x="1085" y="822"/>
      <point x="1185" y="822" type="curve" smooth="yes"/>
      <point x="1293" y="822"/>
      <point x="1388" y="738"/>
      <point x="1388" y="585" type="curve" smooth="yes"/>
      <point x="1388" y="442"/>
      <point x="1296" y="351"/>
    </contour>
  </outline>
</glyph>
<glyph name="lessequal" format="1">
  <advance width="1348"/>
  <unicode hex="2264"/>
  <outline>
    <contour>
      <point x="1140" y="234" type="line"/>
      <point x="1140" y="437" type="line"/>
      <point x="437" y="723" type="line"/>
      <point x="1140" y="1020" type="line"/>
      <point x="1140" y="1225" type="line"/>
      <point x="211" y="803" type="line"/>
      <point x="211" y="644" type="line"/>
    </contour>
    <contour>
      <point x="195" y="1" type="line"/>
      <point x="1154" y="1" type="line"/>
      <point x="1154" y="178" type="line"/>
      <point x="195" y="178" type="line"/>
    </contour>
  </outline>
</glyph>
<glyph name="f_i" format="1">
  <advance width="1222"/>
  <outline>
    <contour>
      <point x="217" y="0" type="line"/>
      <point x="406" y="0" type="line"/>
      <point x="406" y="966" type="line"/>
      <point x="855" y="966" type="line"/>
      <point x="855" y="0" type="line"/>
      <point x="1044" y="0" type="line"/>
      <point x="1044" y="1098" type="line"/>
      <point x="397" y="1098" type="line"/>
      <point x="397" y="1339"/>
      <point x="445" y="1378"/>
      <point x="602" y="1378" type="curve" smooth="yes"/>
      <point x="643" y="1378"/>
      <point x="709" y="1365"/>
      <point x="709" y="1365" type="curve"/>
      <point x="709" y="1512" type="line"/>
      <point x="651" y="1519"/>
      <point x="651" y="1525"/>
      <point x="573" y="1525" type="curve" smooth="yes"/>
      <point x="290" y="1525"/>
      <point x="217" y="1403"/>
      <point x="217" y="1137" type="curve" smooth="yes"/>
      <point x="217" y="1098" type="line"/>
      <point x="24" y="1098" type="line"/>
      <point x="24" y="966" type="line"/>
      <point x="217" y="966" type="line"/>
    </contour>
    <contour>
      <point x="957" y="1265" type="curve" smooth="yes"/>
      <point x="1046" y="1265"/>
      <point x="1090" y="1329"/>
      <point x="1090" y="1392" type="curve" smooth="yes"/>
      <point x="1090" y="1456"/>
      <point x="1044" y="1520"/>
      <point x="957" y="1520" type="curve" smooth="yes"/>
      <point x="867" y="1520"/>
      <point x="823" y="1457"/>
      <point x="823" y="1392" type="curve" smooth="yes"/>
      <point x="823" y="1329"/>
      <point x="868" y="1265"/>
    </contour>
  </outline>
</glyph>
<glyph name="f_l" format="1">
  <advance width="1333"/>
  <outline>
    <contour>
      <point x="1209" y="-10" type="curve" smooth="yes"/>
      <point x="1296" y="-10" type="line"/>
      <point x="1296" y="146" type="line"/>
      <point x="1094" y="146"/>
      <point x="1061" y="159"/>
      <point x="1061" y="319" type="curve" smooth="yes"/>
      <point x="1061" y="1492" type="line"/>
      <point x="1061" y="1492"/>
      <point x="777" y="1525"/>
      <point x="613" y="1525" type="curve" smooth="yes"/>
      <point x="330" y="1525"/>
      <point x="217" y="1403"/>
      <point x="217" y="1137" type="curve" smooth="yes"/>
      <point x="217" y="1098" type="line"/>
      <point x="24" y="1098" type="line"/>
      <point x="24" y="966" type="line"/>
      <point x="217" y="966" type="line"/>
      <point x="217" y="0" type="line"/>
      <point x="406" y="0" type="line"/>
      <point x="406" y="966" type="line"/>
      <point x="701" y="966" type="line"/>
      <point x="701" y="1098" type="line"/>
      <point x="397" y="1098" type="line"/>
      <point x="397" y="1339"/>
      <point x="456" y="1386"/>
      <point x="642" y="1386" type="curve" smooth="yes"/>
      <point x="683" y="1386"/>
      <point x="872" y="1373"/>
      <point x="872" y="1373" type="curve"/>
      <point x="872" y="316" type="line" smooth="yes"/>
      <point x="872" y="119"/>
      <point x="879" y="-10"/>
    </contour>
  </outline>
</glyph>
<glyph name="three.superior" format="1">
  <advance width="639"/>
  <outline>
    <contour>
      <point x="298.0" y="581.0" type="curve" smooth="yes"/>
      <point x="508.0" y="581.0"/>
      <point x="631.0" y="683.0"/>
      <point x="631.0" y="834.0" type="curve" smooth="yes"/>
      <point x="631.0" y="951.0"/>
      <point x="537.0" y="1026.0"/>
      <point x="458.0" y="1051.0" type="curve"/>
      <point x="529.0" y="1083.0"/>
      <point x="600.0" y="1132.0"/>
      <point x="600.0" y="1243.0" type="curve" smooth="yes"/>
      <point x="600.0" y="1362.0"/>
      <point x="507.0" y="1470.0"/>
      <point x="294.0" y="1470.0" type="curve" smooth="yes"/>
      <point x="193.0" y="1470.0"/>
      <point x="93.0" y="1444.0"/>
      <point x="39.0" y="1405.0" type="curve"/>
      <point x="39.0" y="1304.0" type="line"/>
      <point x="72.0" y="1304.0" type="line"/>
      <point x="72.0" y="1304.0"/>
      <point x="149.0" y="1363.0"/>
      <point x="278.0" y="1363.0" type="curve" smooth="yes"/>
      <point x="401.0" y="1363.0"/>
      <point x="459.0" y="1314.0"/>
      <point x="459.0" y="1243.0" type="curve" smooth="yes"/>
      <point x="459.0" y="1162.0"/>
      <point x="416.0" y="1098.0"/>
      <point x="263.0" y="1098.0" type="curve" smooth="yes"/>
      <point x="193.0" y="1098.0" type="line"/>
      <point x="193.0" y="1008.0" type="line"/>
      <point x="263.0" y="1008.0" type="line" smooth="yes"/>
      <point x="430.0" y="1008.0"/>
      <point x="491.0" y="915.0"/>
      <point x="491.0" y="834.0" type="curve" smooth="yes"/>
      <point x="491.0" y="739.0"/>
      <point x="415.0" y="686.0"/>
      <point x="282.0" y="686.0" type="curve" smooth="yes"/>
      <point x="125.0" y="686.0"/>
      <point x="72.0" y="749.0"/>
      <point x="72.0" y="749.0" type="curve"/>
      <point x="39.0" y="749.0" type="line"/>
      <point x="39.0" y="646.0" type="line"/>
      <point x="75.0" y="621.0"/>
      <point x="168.0" y="581.0"/>
    </contour>
  </outline>
</glyph>
<glyph name="two.superior" format="1">
  <advance width="639"/>
  <outline>
    <contour>
      <point x="82.0" y="589.0" type="line"/>
      <point x="598.0" y="589.0" type="line"/>
      <point x="598.0" y="695.0" type="line"/>
      <point x="241.0" y="695.0" type="line"/>
      <point x="448.0" y="899.0"/>
      <point x="595.0" y="1060.0"/>
      <point x="595.0" y="1232.0" type="curve" smooth="yes"/>
      <point x="595.0" y="1379.0"/>
      <point x="504.0" y="1471.0"/>
      <point x="335.0" y="1471.0" type="curve" smooth="yes"/>
      <point x="247.0" y="1471.0"/>
      <point x="133.0" y="1431.0"/>
      <point x="95.0" y="1393.0" type="curve"/>
      <point x="120.0" y="1292.0" type="line"/>
      <point x="153.0" y="1323.0"/>
      <point x="253.0" y="1364.0"/>
      <point x="315.0" y="1364.0" type="curve" smooth="yes"/>
      <point x="436.0" y="1364.0"/>
      <point x="470.0" y="1310.0"/>
      <point x="470.0" y="1227.0" type="curve" smooth="yes"/>
      <point x="470.0" y="1093.0"/>
      <point x="257.0" y="863.0"/>
      <point x="82.0" y="693.0" type="curve"/>
    </contour>
  </outline>
</glyph>
